<?xml version="1.0" standalone="no"?>
<!DOCTYPE svg PUBLIC "-//W3C//DTD SVG 20010904//EN"
 "http://www.w3.org/TR/2001/REC-SVG-20010904/DTD/svg10.dtd">
<svg version="1.0" xmlns="http://www.w3.org/2000/svg"
 width="57.000000pt" height="57.000000pt" viewBox="0 0 57.000000 57.000000"
 preserveAspectRatio="xMidYMid meet">

<g transform="translate(0.000000,57.000000) scale(0.100000,-0.100000)"
fill="#000000" stroke="none">
<path d="M207 556 c-93 -34 -153 -99 -182 -200 -49 -170 87 -348 265 -348 121
0 224 80 261 204 18 57 19 75 10 118 -6 28 -20 68 -30 88 -60 117 -207 179
-324 138z m142 -182 c44 -57 7 -124 -69 -124 l-40 0 0 -41 c0 -28 -4 -39 -12
-37 -9 3 -14 38 -16 116 l-3 112 60 0 c52 0 62 -3 80 -26z"/>
<path d="M240 330 c0 -46 17 -59 59 -44 18 7 27 18 29 38 4 34 -10 46 -55 46
-32 0 -33 -1 -33 -40z"/>
</g>
</svg>
