<svg id="svg" version="1.1" xmlns="http://www.w3.org/2000/svg" xmlns:xlink="http://www.w3.org/1999/xlink" width="400" height="442" viewBox="0, 0, 400,442"><g id="svgg"><path id="path0" d="M98.600 37.224 C 96.620 37.630,93.920 38.163,92.600 38.409 C 86.869 39.478,78.242 43.136,73.085 46.685 C 72.378 47.171,70.971 48.016,69.957 48.562 C 67.975 49.631,58.040 58.962,56.646 61.065 C 56.181 61.767,54.350 64.379,52.577 66.871 C 48.803 72.175,47.396 74.594,46.354 77.572 C 45.936 78.767,45.330 80.036,45.008 80.392 C 44.236 81.244,40.573 92.440,40.228 95.000 C 40.079 96.100,39.708 97.810,39.404 98.800 C 36.805 107.237,36.799 125.318,39.392 136.149 C 39.925 138.377,40.621 141.280,40.938 142.600 C 41.825 146.290,43.517 151.185,44.670 153.400 C 45.243 154.500,46.039 156.352,46.440 157.515 C 46.840 158.679,47.535 160.147,47.984 160.777 C 48.433 161.408,48.805 162.076,48.811 162.262 C 48.817 162.448,49.619 163.680,50.595 165.000 C 51.570 166.320,52.747 167.940,53.211 168.600 C 58.575 176.234,65.222 182.981,71.200 186.858 C 73.290 188.214,75.900 189.910,77.000 190.627 C 78.100 191.344,79.900 192.199,81.000 192.527 C 82.100 192.855,83.990 193.578,85.200 194.133 C 89.163 195.951,99.375 197.782,105.600 197.792 C 111.879 197.801,123.856 195.673,126.363 194.103 C 126.892 193.771,128.636 193.095,130.238 192.601 C 131.839 192.107,133.656 191.304,134.275 190.817 C 134.894 190.330,137.380 188.624,139.800 187.026 C 142.881 184.991,145.772 182.573,149.445 178.960 C 154.209 174.274,156.073 171.961,160.534 165.200 C 161.188 164.210,161.936 163.220,162.197 163.000 C 162.458 162.780,163.074 161.520,163.566 160.200 C 164.058 158.880,164.787 157.260,165.185 156.600 C 165.583 155.940,166.038 154.950,166.196 154.400 C 166.355 153.850,167.162 151.870,167.990 150.000 C 168.818 148.130,169.810 145.160,170.193 143.400 C 170.576 141.640,171.418 138.400,172.064 136.200 C 174.709 127.194,174.520 107.241,171.691 97.000 C 171.266 95.460,170.600 92.867,170.210 91.237 C 169.516 88.331,166.054 79.464,164.964 77.801 C 164.660 77.337,164.071 75.977,163.655 74.779 C 163.239 73.580,162.201 71.593,161.349 70.362 C 160.497 69.131,158.673 66.502,157.295 64.519 C 153.634 59.249,144.710 50.627,139.782 47.600 C 138.529 46.830,136.607 45.615,135.510 44.899 C 131.375 42.200,122.609 39.027,116.400 37.981 C 113.870 37.555,111.171 37.025,110.403 36.803 C 108.294 36.195,102.642 36.396,98.600 37.224 M284.243 43.637 L 283.179 44.475 283.213 87.651 L 283.246 130.827 282.201 133.114 C 280.869 136.024,279.553 137.394,276.800 138.731 L 274.600 139.800 260.915 139.919 C 246.102 140.049,245.475 139.982,242.000 137.911 C 240.073 136.763,239.616 136.227,238.318 133.600 L 236.837 130.600 236.818 100.526 C 236.800 70.806,236.700 68.400,235.477 68.400 C 234.786 68.400,233.110 70.766,231.793 73.600 C 231.231 74.810,230.329 76.700,229.790 77.800 C 229.250 78.900,228.465 80.700,228.045 81.800 C 227.624 82.900,226.731 85.068,226.060 86.618 C 225.388 88.167,224.462 91.173,224.002 93.298 C 223.541 95.423,222.735 98.392,222.209 99.897 C 220.122 105.869,220.447 129.182,222.718 136.400 C 223.375 138.490,224.284 141.787,224.737 143.727 C 225.535 147.140,226.438 149.457,229.598 156.200 C 230.422 157.960,231.309 160.061,231.569 160.868 C 231.829 161.675,232.314 162.562,232.647 162.839 C 232.980 163.115,233.523 163.864,233.853 164.502 C 234.183 165.140,235.026 166.438,235.726 167.387 C 236.427 168.336,237.810 170.254,238.800 171.650 C 240.781 174.443,249.716 183.525,251.974 185.040 C 252.758 185.567,254.930 186.975,256.800 188.170 C 258.670 189.365,260.650 190.684,261.200 191.102 C 261.750 191.520,263.100 192.097,264.200 192.384 C 265.300 192.672,266.994 193.358,267.965 193.909 C 270.276 195.220,281.587 197.546,287.203 197.865 C 293.008 198.195,307.015 195.826,310.131 193.988 C 310.928 193.518,312.487 192.894,313.597 192.601 C 315.501 192.099,317.235 191.114,322.400 187.603 C 323.610 186.781,325.140 185.825,325.800 185.479 C 327.437 184.620,336.753 175.460,338.437 173.052 C 339.187 171.981,340.160 170.613,340.600 170.013 C 341.040 169.413,342.464 167.320,343.765 165.361 C 345.066 163.403,346.432 161.350,346.801 160.800 C 347.170 160.250,347.796 158.810,348.192 157.600 C 348.588 156.390,349.292 154.866,349.756 154.213 C 350.875 152.639,353.437 145.100,354.383 140.600 C 354.799 138.620,355.428 135.920,355.780 134.600 C 358.024 126.188,357.964 108.038,355.661 99.200 C 355.232 97.550,354.670 94.940,354.414 93.400 C 354.158 91.860,353.517 89.610,352.990 88.400 C 352.464 87.190,351.735 85.120,351.371 83.800 C 351.007 82.480,350.373 81.031,349.961 80.581 C 349.549 80.130,348.869 78.780,348.449 77.581 C 346.795 72.854,342.921 67.491,341.980 68.625 C 341.636 69.039,341.528 76.877,341.563 98.892 C 341.601 122.860,341.505 128.986,341.064 130.600 C 338.721 139.188,336.739 140.000,318.137 140.000 L 304.658 140.000 301.326 138.387 C 297.852 136.706,296.725 135.521,295.667 132.440 C 295.322 131.437,295.200 119.691,295.200 87.569 C 295.200 48.546,295.135 43.992,294.571 43.429 C 293.516 42.374,285.648 42.533,284.243 43.637 M256.000 51.978 C 255.228 52.483,254.869 117.833,255.627 119.666 C 256.579 121.965,261.322 122.517,263.811 120.619 L 265.200 119.559 265.200 87.153 C 265.200 66.522,265.056 54.478,264.804 54.007 C 264.091 52.676,257.318 51.115,256.000 51.978 M315.203 76.357 C 313.209 76.912,313.193 77.105,313.300 99.071 C 313.398 119.163,313.416 119.563,314.240 120.671 C 315.647 122.562,320.589 122.371,322.084 120.368 C 322.955 119.202,323.230 78.351,322.378 76.758 C 321.950 75.959,317.522 75.712,315.203 76.357 M64.551 109.688 C 68.331 111.589,69.493 114.008,70.247 121.538 C 70.571 124.768,71.253 128.824,71.771 130.594 C 72.287 132.357,72.895 134.807,73.121 136.039 C 73.347 137.270,74.065 139.160,74.716 140.239 C 75.366 141.317,76.012 142.684,76.151 143.276 C 77.247 147.952,90.369 161.696,94.600 162.598 C 95.040 162.692,96.463 162.974,97.762 163.225 C 99.061 163.477,101.221 164.093,102.562 164.596 C 103.903 165.098,106.037 165.723,107.304 165.984 C 114.678 167.502,116.818 176.700,110.928 181.555 C 107.087 184.721,99.194 184.668,91.889 181.426 C 90.617 180.862,89.307 180.400,88.976 180.400 C 87.869 180.400,83.841 178.178,78.540 174.642 C 74.589 172.007,67.935 165.405,65.707 161.908 C 64.878 160.608,63.704 158.947,63.099 158.218 C 62.493 157.488,61.708 156.199,61.354 155.352 C 61.001 154.506,60.382 153.395,59.980 152.884 C 59.578 152.373,58.944 151.020,58.570 149.877 C 58.196 148.735,57.477 147.080,56.971 146.200 C 56.465 145.320,55.564 142.710,54.969 140.400 C 54.374 138.090,53.459 134.580,52.936 132.600 C 51.520 127.240,51.375 116.194,52.688 113.739 C 55.107 109.215,60.172 107.486,64.551 109.688 M93.841 216.863 L 92.742 217.809 92.785 237.314 C 92.828 257.041,92.926 258.411,94.355 259.176 C 95.424 259.748,114.658 259.747,116.300 259.175 C 118.025 258.573,117.989 259.047,117.995 237.349 C 117.999 219.543,117.938 217.646,117.338 217.149 C 116.819 216.719,114.635 216.598,107.238 216.589 C 102.047 216.582,97.156 216.429,96.370 216.248 C 95.163 215.969,94.769 216.065,93.841 216.863 M279.292 216.326 C 276.715 216.574,276.766 216.115,276.889 238.133 C 276.992 256.551,277.051 258.023,277.714 258.686 C 278.436 259.409,297.424 260.032,299.889 259.413 C 301.996 258.885,301.993 258.914,302.027 237.578 L 302.058 217.809 300.965 216.869 C 300.123 216.144,299.588 215.985,298.636 216.174 C 296.390 216.622,284.637 216.892,282.600 216.543 C 281.500 216.354,280.012 216.257,279.292 216.326 " stroke="none" fill="#f1da93" fill-rule="evenodd"></path><path id="path1" d="M257.781 278.258 C 257.178 278.909,256.800 279.795,256.800 280.558 C 256.800 281.241,256.787 306.640,256.772 337.000 C 256.744 390.613,256.766 392.315,257.541 396.200 C 258.471 400.863,260.260 405.415,261.984 407.507 C 262.653 408.318,263.200 409.175,263.200 409.411 C 263.200 410.442,267.492 414.508,271.237 417.025 C 282.176 424.378,295.609 424.546,306.371 417.464 C 313.020 413.089,318.155 406.736,319.408 401.334 C 319.757 399.830,320.438 397.250,320.921 395.600 L 321.800 392.600 321.906 336.600 C 321.987 294.067,321.898 280.324,321.537 279.451 C 320.591 277.162,321.141 277.200,288.594 277.200 L 258.762 277.200 257.781 278.258 M292.485 286.659 C 297.649 289.258,297.784 298.257,292.698 300.852 C 286.779 303.872,279.851 298.422,281.548 292.080 C 282.875 287.117,288.175 284.490,292.485 286.659 M292.408 319.419 C 296.714 321.582,296.939 322.681,297.189 342.800 C 297.436 362.712,297.204 361.628,301.698 363.877 C 309.575 367.821,316.002 378.314,315.999 387.226 C 315.995 400.269,307.273 410.992,294.636 413.487 L 289.174 414.566 285.487 413.860 C 278.873 412.592,278.033 412.338,276.552 411.162 C 275.748 410.523,274.837 410.000,274.528 410.000 C 273.497 410.000,267.417 403.500,265.981 400.863 C 265.222 399.467,264.385 397.934,264.122 397.454 C 262.608 394.694,262.426 381.555,263.856 378.191 C 266.195 372.689,272.078 366.135,276.622 363.970 C 280.952 361.907,280.815 362.579,280.915 342.919 L 281.000 326.200 282.048 324.000 C 284.302 319.271,288.456 317.434,292.408 319.419 M285.626 378.040 C 279.327 380.557,277.105 389.363,281.566 394.134 C 288.016 401.033,299.209 396.832,299.197 387.516 C 299.188 380.859,291.685 375.619,285.626 378.040 " stroke="none" fill="#04b09a" fill-rule="evenodd"></path><path id="path2" d="M95.200 37.239 C 91.108 38.078,87.751 39.086,83.800 40.661 C 78.164 42.909,76.923 43.588,68.000 49.308 C 65.204 51.100,56.751 60.071,53.442 64.758 C 51.517 67.484,49.685 69.972,49.371 70.286 C 49.057 70.600,48.800 71.028,48.800 71.237 C 48.800 71.445,48.368 72.300,47.840 73.136 C 47.312 73.973,46.579 75.544,46.211 76.628 C 45.843 77.713,45.205 79.145,44.793 79.811 C 43.777 81.456,40.570 90.576,40.225 92.802 C 40.072 93.791,39.518 96.130,38.995 98.000 C 36.260 107.766,36.260 126.375,38.994 136.600 C 39.524 138.580,40.305 141.640,40.730 143.400 C 41.757 147.652,43.625 152.858,45.156 155.741 C 45.840 157.028,46.406 158.288,46.413 158.541 C 46.505 161.736,61.311 180.310,67.600 185.120 C 70.332 187.209,79.158 192.466,80.575 192.847 C 81.461 193.086,83.028 193.708,84.057 194.229 C 89.462 196.968,103.476 199.037,110.641 198.153 C 116.044 197.487,124.776 195.482,126.800 194.443 C 127.570 194.048,129.190 193.406,130.400 193.016 C 131.610 192.627,133.500 191.724,134.600 191.011 C 135.700 190.297,138.286 188.623,140.347 187.289 C 144.576 184.553,153.247 176.324,156.433 172.022 C 159.872 167.379,162.607 163.353,163.241 162.000 C 168.682 150.384,170.381 146.025,171.006 142.072 C 171.157 141.121,171.806 138.691,172.450 136.672 C 173.653 132.897,174.460 124.032,174.334 116.000 C 174.307 114.350,174.069 117.240,173.804 122.422 C 173.369 130.908,173.200 132.259,172.106 136.022 C 171.438 138.320,170.578 141.640,170.194 143.400 C 169.810 145.160,168.818 148.130,167.990 150.000 C 167.162 151.870,166.355 153.850,166.196 154.400 C 166.038 154.950,165.583 155.940,165.185 156.600 C 164.787 157.260,164.058 158.880,163.566 160.200 C 163.074 161.520,162.458 162.780,162.197 163.000 C 161.936 163.220,161.188 164.210,160.534 165.200 C 156.073 171.961,154.209 174.274,149.445 178.960 C 145.772 182.573,142.881 184.991,139.800 187.026 C 137.380 188.624,134.894 190.330,134.275 190.817 C 133.656 191.304,131.839 192.107,130.238 192.601 C 128.636 193.095,126.892 193.771,126.363 194.103 C 123.856 195.673,111.879 197.801,105.600 197.792 C 99.375 197.782,89.163 195.951,85.200 194.133 C 83.990 193.578,82.100 192.855,81.000 192.527 C 79.900 192.199,78.100 191.344,77.000 190.627 C 75.900 189.910,73.290 188.214,71.200 186.858 C 65.222 182.981,58.575 176.234,53.211 168.600 C 52.747 167.940,51.570 166.320,50.595 165.000 C 49.619 163.680,48.817 162.448,48.811 162.262 C 48.805 162.076,48.433 161.408,47.984 160.777 C 47.535 160.147,46.840 158.679,46.440 157.515 C 46.039 156.352,45.243 154.500,44.670 153.400 C 43.517 151.185,41.825 146.290,40.938 142.600 C 40.621 141.280,39.925 138.377,39.392 136.149 C 36.799 125.318,36.805 107.237,39.404 98.800 C 39.708 97.810,40.079 96.100,40.228 95.000 C 40.573 92.440,44.236 81.244,45.008 80.392 C 45.330 80.036,45.936 78.767,46.354 77.572 C 47.396 74.594,48.803 72.175,52.577 66.871 C 54.350 64.379,56.181 61.767,56.646 61.065 C 58.040 58.962,67.975 49.631,69.957 48.562 C 70.971 48.016,72.378 47.171,73.085 46.685 C 77.069 43.943,77.932 43.517,85.800 40.412 C 92.830 37.637,106.397 35.647,110.403 36.803 C 111.171 37.025,113.870 37.555,116.400 37.981 C 122.609 39.027,131.375 42.200,135.510 44.899 C 136.607 45.615,138.529 46.830,139.782 47.600 C 144.710 50.627,153.634 59.249,157.295 64.519 C 158.673 66.502,160.497 69.131,161.349 70.362 C 162.201 71.593,163.239 73.580,163.655 74.779 C 164.071 75.977,164.660 77.337,164.964 77.801 C 166.054 79.464,169.516 88.331,170.210 91.237 C 170.600 92.867,171.260 95.460,171.678 97.000 C 172.095 98.540,172.627 100.520,172.860 101.400 C 173.092 102.280,173.431 105.250,173.611 108.000 L 173.940 113.000 173.798 107.400 C 173.676 102.620,173.481 101.214,172.469 97.800 C 171.816 95.600,170.925 92.270,170.489 90.400 C 170.053 88.530,169.070 85.647,168.305 83.993 C 167.539 82.339,166.772 80.539,166.599 79.993 C 166.426 79.447,165.681 77.860,164.943 76.467 C 164.204 75.074,163.600 73.699,163.600 73.412 C 163.600 73.125,163.015 72.007,162.300 70.929 C 161.585 69.850,160.820 68.673,160.600 68.314 C 156.102 60.966,141.028 46.000,138.125 46.000 C 137.979 46.000,136.909 45.346,135.748 44.546 C 131.750 41.793,123.562 38.797,115.659 37.195 C 107.777 35.597,103.160 35.607,95.200 37.239 M289.916 42.774 C 293.312 42.944,294.525 43.149,294.810 43.600 C 295.041 43.967,295.190 61.062,295.194 87.640 C 295.198 119.694,295.322 131.437,295.667 132.440 C 296.725 135.521,297.852 136.706,301.326 138.387 L 304.658 140.000 318.137 140.000 C 336.739 140.000,338.721 139.188,341.064 130.600 C 341.505 128.986,341.601 122.860,341.563 98.892 C 341.528 76.877,341.636 69.039,341.980 68.625 C 342.921 67.491,346.795 72.854,348.449 77.581 C 348.869 78.780,349.549 80.130,349.961 80.581 C 350.373 81.031,351.007 82.480,351.371 83.800 C 351.735 85.120,352.464 87.190,352.990 88.400 C 353.517 89.610,354.158 91.860,354.414 93.400 C 354.670 94.940,355.232 97.550,355.661 99.200 C 357.964 108.038,358.024 126.188,355.780 134.600 C 355.428 135.920,354.799 138.620,354.383 140.600 C 353.437 145.100,350.875 152.639,349.756 154.213 C 349.292 154.866,348.588 156.390,348.192 157.600 C 347.796 158.810,347.170 160.250,346.801 160.800 C 346.432 161.350,345.066 163.403,343.765 165.361 C 342.464 167.320,341.040 169.413,340.600 170.013 C 340.160 170.613,339.187 171.981,338.437 173.052 C 336.753 175.460,327.437 184.620,325.800 185.479 C 325.140 185.825,323.610 186.781,322.400 187.603 C 317.235 191.114,315.501 192.099,313.597 192.601 C 312.487 192.894,310.928 193.518,310.131 193.988 C 307.015 195.826,293.008 198.195,287.203 197.865 C 281.587 197.546,270.276 195.220,267.965 193.909 C 266.994 193.358,265.300 192.672,264.200 192.384 C 263.100 192.097,261.750 191.520,261.200 191.102 C 260.650 190.684,258.670 189.365,256.800 188.170 C 254.930 186.975,252.758 185.567,251.974 185.040 C 249.716 183.525,240.781 174.443,238.800 171.650 C 237.810 170.254,236.427 168.336,235.726 167.387 C 235.026 166.438,234.183 165.140,233.853 164.502 C 233.523 163.864,232.980 163.115,232.647 162.839 C 232.314 162.562,231.829 161.675,231.569 160.868 C 231.309 160.061,230.422 157.960,229.598 156.200 C 226.439 149.459,225.535 147.141,224.736 143.727 C 224.282 141.787,223.350 138.400,222.665 136.200 C 221.776 133.344,221.345 130.999,221.158 128.000 L 220.895 123.800 221.006 128.600 C 221.101 132.698,221.294 133.927,222.326 137.000 C 222.991 138.980,223.741 141.770,223.992 143.200 C 224.408 145.564,226.213 150.205,229.205 156.600 C 229.823 157.920,230.613 159.694,230.961 160.542 C 231.534 161.937,232.874 164.033,236.705 169.529 C 237.422 170.558,238.441 172.030,238.968 172.800 C 240.535 175.087,250.408 184.586,253.000 186.300 C 260.490 191.252,262.371 192.362,264.000 192.791 C 264.990 193.051,266.425 193.628,267.189 194.071 C 271.256 196.434,285.819 198.930,292.159 198.351 C 299.288 197.700,307.639 195.797,311.394 193.967 C 312.711 193.325,314.025 192.800,314.314 192.800 C 315.260 192.800,319.160 190.495,326.085 185.844 C 333.263 181.022,348.800 161.429,348.800 157.197 C 348.800 156.793,349.228 155.953,349.751 155.331 C 350.951 153.905,353.409 147.031,354.590 141.800 C 355.087 139.600,355.782 136.810,356.133 135.600 C 358.545 127.308,358.478 107.059,356.011 98.400 C 355.604 96.970,354.973 94.283,354.609 92.429 C 354.245 90.574,353.703 88.585,353.405 88.009 C 353.106 87.432,352.468 85.709,351.986 84.180 C 351.505 82.651,350.691 80.770,350.178 80.000 C 349.666 79.230,348.954 77.733,348.598 76.673 C 347.798 74.295,344.827 69.340,343.395 67.997 L 342.332 67.000 341.566 67.944 C 340.826 68.856,340.800 69.936,340.800 99.426 L 340.800 129.964 339.817 132.682 C 337.594 138.831,335.761 139.400,318.181 139.400 L 304.561 139.400 301.386 137.800 C 298.682 136.437,298.033 135.904,297.006 134.200 L 295.800 132.200 295.600 87.868 C 295.367 36.222,296.175 42.359,289.624 42.474 L 285.400 42.548 289.916 42.774 M283.689 43.423 L 282.800 44.045 282.798 86.923 C 282.796 116.850,282.663 130.283,282.356 131.400 C 281.569 134.262,279.673 136.708,277.409 137.778 C 273.667 139.549,272.503 139.659,258.975 139.526 L 246.178 139.400 243.389 138.000 C 237.063 134.825,237.164 135.467,237.215 98.833 C 237.259 67.446,237.267 67.600,235.586 67.600 C 234.732 67.600,231.797 71.741,230.951 74.138 C 230.631 75.045,230.093 76.209,229.755 76.725 C 229.417 77.240,228.721 78.773,228.209 80.131 C 227.696 81.489,226.643 83.989,225.868 85.686 C 225.093 87.383,224.162 90.226,223.799 92.004 C 223.437 93.782,222.683 96.534,222.124 98.118 C 221.307 100.435,221.085 101.902,220.992 105.600 L 220.876 110.200 221.191 105.800 C 221.394 102.963,221.792 100.689,222.312 99.400 C 222.754 98.300,223.504 95.608,223.978 93.418 C 224.451 91.227,225.388 88.167,226.060 86.618 C 226.731 85.068,227.624 82.900,228.045 81.800 C 228.465 80.700,229.250 78.900,229.790 77.800 C 230.329 76.700,231.231 74.810,231.793 73.600 C 233.110 70.766,234.786 68.400,235.477 68.400 C 236.700 68.400,236.800 70.806,236.818 100.526 L 236.837 130.600 238.318 133.600 C 239.616 136.227,240.073 136.763,242.000 137.911 C 245.475 139.982,246.102 140.049,260.915 139.919 L 274.600 139.800 276.800 138.731 C 279.553 137.394,280.869 136.024,282.201 133.114 L 283.246 130.827 283.213 87.651 L 283.179 44.475 284.243 43.637 C 285.473 42.670,285.016 42.494,283.689 43.423 M322.985 97.400 C 322.985 107.740,323.036 112.027,323.100 106.928 C 323.163 101.828,323.163 93.368,323.100 88.128 C 323.037 82.887,322.985 87.060,322.985 97.400 M58.400 109.015 C 56.108 109.726,53.824 111.614,52.688 113.739 C 51.375 116.194,51.520 127.240,52.936 132.600 C 53.459 134.580,54.374 138.090,54.969 140.400 C 55.564 142.710,56.465 145.320,56.971 146.200 C 57.477 147.080,58.196 148.735,58.570 149.877 C 58.944 151.020,59.578 152.373,59.980 152.884 C 60.382 153.395,61.001 154.506,61.354 155.352 C 61.708 156.199,62.493 157.488,63.099 158.218 C 63.704 158.947,64.878 160.608,65.707 161.908 C 67.935 165.405,74.589 172.007,78.540 174.642 C 83.841 178.178,87.869 180.400,88.976 180.400 C 89.307 180.400,90.617 180.862,91.889 181.426 C 101.811 185.829,110.338 184.462,113.630 177.940 C 115.976 173.293,111.995 165.831,107.274 166.028 C 106.903 166.044,107.315 166.318,108.188 166.638 C 115.707 169.390,115.374 180.648,107.711 182.776 C 104.322 183.717,96.099 182.883,92.956 181.280 C 92.080 180.833,90.651 180.343,89.781 180.191 C 88.912 180.040,87.019 179.215,85.576 178.358 C 84.133 177.501,82.772 176.800,82.551 176.800 C 82.331 176.800,81.800 176.473,81.371 176.073 C 80.942 175.674,79.558 174.686,78.295 173.878 C 71.336 169.426,61.872 157.254,58.589 148.531 C 58.036 147.064,57.375 145.611,57.119 145.303 C 56.863 144.994,56.159 142.820,55.554 140.471 C 54.949 138.122,54.104 134.940,53.675 133.400 C 52.028 127.476,51.603 118.291,52.825 115.025 C 56.330 105.657,68.225 108.103,69.570 118.468 L 69.899 121.000 69.932 119.000 C 70.040 112.446,64.054 107.263,58.400 109.015 M220.560 117.000 C 220.561 120.300,220.622 121.597,220.698 119.882 C 220.773 118.167,220.772 115.467,220.697 113.882 C 220.621 112.297,220.559 113.700,220.560 117.000 M70.196 124.400 C 70.284 126.270,70.718 128.970,71.162 130.400 C 71.606 131.830,72.244 134.304,72.579 135.899 C 72.914 137.493,73.656 139.539,74.228 140.445 C 74.800 141.350,75.521 142.810,75.831 143.687 C 77.719 149.040,90.844 162.833,94.000 162.782 C 94.415 162.775,94.346 162.622,93.775 162.286 C 87.054 158.328,77.183 147.681,76.151 143.276 C 76.012 142.684,75.366 141.317,74.716 140.239 C 74.065 139.160,73.346 137.270,73.118 136.039 C 72.891 134.807,72.269 132.270,71.736 130.400 C 71.204 128.530,70.604 125.650,70.403 124.000 L 70.037 121.000 70.196 124.400 M97.400 163.576 C 98.940 163.991,101.341 164.706,102.736 165.165 C 104.130 165.624,105.570 165.995,105.936 165.988 C 107.163 165.966,98.623 163.277,96.600 163.049 C 94.743 162.839,94.800 162.877,97.400 163.576 M93.421 216.480 L 92.289 217.454 92.309 237.818 L 92.330 258.181 93.394 259.097 C 94.456 260.010,94.490 260.012,105.687 259.906 L 116.914 259.800 117.757 258.671 C 118.584 257.564,118.602 257.166,118.711 237.789 L 118.822 218.037 117.678 216.757 L 116.535 215.478 112.021 215.998 C 107.739 216.491,101.670 216.397,96.577 215.760 C 94.805 215.538,94.412 215.628,93.421 216.480 M277.905 216.015 C 276.328 216.966,276.285 217.548,276.326 237.380 C 276.348 247.951,276.374 256.923,276.383 257.318 C 276.392 257.713,276.842 258.478,277.382 259.018 L 278.364 260.000 289.208 260.000 C 304.364 260.000,302.800 262.625,302.800 237.182 L 302.800 217.938 301.590 216.728 L 300.380 215.519 297.090 215.859 C 293.018 216.281,285.591 216.300,281.600 215.898 C 279.680 215.705,278.350 215.747,277.905 216.015 M107.238 216.589 C 114.635 216.598,116.819 216.719,117.338 217.149 C 117.938 217.646,117.999 219.543,117.995 237.349 C 117.989 259.047,118.025 258.573,116.300 259.175 C 114.658 259.747,95.424 259.748,94.355 259.176 C 92.926 258.411,92.828 257.041,92.785 237.314 L 92.742 217.809 93.841 216.863 C 94.769 216.065,95.163 215.969,96.370 216.248 C 97.156 216.429,102.047 216.582,107.238 216.589 M291.000 216.653 C 294.520 216.525,297.956 216.310,298.636 216.174 C 299.588 215.985,300.123 216.144,300.965 216.869 L 302.058 217.809 302.027 237.578 C 301.993 258.914,301.996 258.885,299.889 259.413 C 297.424 260.032,278.436 259.409,277.714 258.686 C 276.700 257.672,276.388 218.889,277.381 217.372 C 278.088 216.294,279.676 216.042,282.600 216.543 C 283.700 216.731,287.480 216.781,291.000 216.653 M75.105 279.026 C 73.498 279.898,73.566 277.115,73.688 336.800 C 73.794 389.435,73.837 392.290,74.533 394.000 C 74.936 394.990,75.515 397.306,75.821 399.147 C 77.056 406.588,86.038 416.712,93.716 419.318 C 101.478 421.952,105.705 422.356,111.284 420.997 C 117.623 419.453,119.202 418.850,121.877 416.951 C 123.239 415.984,124.679 415.073,125.077 414.927 C 128.208 413.775,133.518 406.002,135.685 399.400 L 136.997 395.400 137.108 337.844 C 137.207 286.472,137.152 280.186,136.600 279.344 L 135.982 278.400 106.091 278.416 C 80.433 278.430,76.045 278.516,75.105 279.026 M109.143 285.571 C 115.822 288.978,116.492 297.145,110.442 301.397 C 104.970 305.244,96.777 300.710,96.715 293.802 C 96.660 287.729,103.932 282.912,109.143 285.571 M108.111 318.024 C 110.303 318.633,112.107 320.416,113.647 323.495 L 115.000 326.200 115.107 342.934 C 115.231 362.212,115.068 361.316,118.784 363.192 C 127.559 367.622,133.897 378.861,133.081 388.546 C 132.651 393.642,131.658 398.486,130.866 399.351 C 130.438 399.818,129.608 401.159,129.021 402.332 C 127.791 404.789,123.362 409.299,121.002 410.496 C 120.121 410.943,118.919 411.711,118.331 412.202 C 117.323 413.045,107.862 415.612,105.794 415.603 C 102.863 415.591,94.061 413.080,91.800 411.610 C 75.698 401.143,73.227 381.278,86.375 368.003 C 88.375 365.984,90.656 364.096,91.671 363.619 C 92.651 363.158,94.071 362.265,94.826 361.635 L 96.200 360.489 96.400 342.944 L 96.600 325.400 97.758 323.076 C 99.881 318.817,103.901 316.855,108.111 318.024 M102.200 378.537 C 92.208 383.098,94.908 396.837,105.818 396.951 C 117.998 397.077,118.404 378.570,106.231 378.099 C 104.462 378.031,102.950 378.195,102.200 378.537 " stroke="none" fill="#ef5f6e" fill-rule="evenodd"></path><path id="path3" d="M82.573 18.590 C 81.815 19.348,81.145 19.601,79.882 19.602 C 78.957 19.604,77.684 19.874,77.054 20.202 C 76.424 20.531,75.702 20.800,75.450 20.800 C 75.199 20.800,74.777 21.145,74.514 21.566 C 74.159 22.135,73.365 22.404,71.440 22.611 C 68.891 22.883,68.842 22.911,68.722 24.144 C 68.610 25.301,68.474 25.408,67.000 25.507 C 64.445 25.677,63.670 25.950,63.409 26.773 C 63.271 27.205,62.644 27.658,61.982 27.804 C 61.332 27.947,60.800 28.229,60.800 28.432 C 60.800 28.634,60.562 28.800,60.272 28.800 C 59.982 28.800,59.353 29.250,58.875 29.800 C 58.397 30.350,57.641 30.800,57.196 30.800 C 56.668 30.800,56.159 31.278,55.729 32.180 C 55.267 33.149,54.763 33.595,54.036 33.680 C 53.313 33.764,52.961 34.072,52.872 34.700 C 52.802 35.195,52.511 35.600,52.226 35.600 C 51.347 35.600,49.600 37.216,49.600 38.029 C 49.600 38.567,49.322 38.800,48.680 38.800 C 47.508 38.800,46.800 39.508,46.800 40.680 C 46.800 41.377,46.574 41.600,45.868 41.600 C 45.276 41.600,44.734 41.975,44.386 42.625 C 44.085 43.189,43.334 43.948,42.719 44.312 C 42.013 44.728,41.600 45.310,41.600 45.886 C 41.600 46.508,41.364 46.800,40.862 46.800 C 39.973 46.800,38.800 48.008,38.800 48.924 C 38.800 49.287,38.370 49.693,37.845 49.825 C 37.109 50.009,36.730 50.569,36.198 52.263 C 35.818 53.472,35.212 54.569,34.853 54.701 C 33.982 55.022,33.614 55.612,33.606 56.700 C 33.603 57.195,33.358 57.600,33.061 57.600 C 31.948 57.600,30.800 59.066,30.800 60.488 C 30.800 61.491,30.463 62.233,29.600 63.137 C 28.940 63.828,28.400 64.619,28.400 64.896 C 28.399 65.173,27.930 65.940,27.358 66.600 C 25.973 68.196,25.600 69.262,25.600 71.626 C 25.600 73.305,25.485 73.600,24.833 73.600 C 23.273 73.600,22.800 74.051,22.796 75.543 C 22.787 78.290,22.345 79.921,21.553 80.128 C 21.139 80.236,20.800 80.666,20.800 81.083 C 20.800 81.499,20.578 82.062,20.306 82.334 C 19.995 82.645,19.756 84.455,19.661 87.220 C 19.522 91.284,19.440 91.668,18.556 92.364 C 17.615 93.104,17.600 93.220,17.600 99.958 C 17.600 103.721,17.455 106.800,17.277 106.800 C 16.913 106.800,15.838 109.185,15.385 111.000 C 14.887 112.992,14.716 121.302,15.141 122.800 C 15.360 123.570,15.736 125.629,15.976 127.376 C 16.216 129.122,16.665 130.832,16.973 131.176 C 17.372 131.620,17.572 133.223,17.667 136.736 C 17.790 141.289,17.870 141.729,18.700 142.400 C 19.514 143.059,19.600 143.475,19.600 146.777 C 19.600 150.719,20.229 152.938,21.656 154.032 C 22.304 154.529,22.525 155.260,22.686 157.432 C 22.912 160.497,23.611 162.000,24.809 162.000 C 25.478 162.000,25.600 162.274,25.600 163.767 C 25.600 166.021,25.902 166.782,26.955 167.183 C 27.506 167.393,27.992 168.157,28.351 169.377 C 28.677 170.482,29.291 171.504,29.851 171.870 C 30.530 172.315,30.800 172.865,30.800 173.803 C 30.800 175.142,31.319 175.600,32.833 175.600 C 33.493 175.600,33.600 175.897,33.600 177.726 C 33.600 179.608,33.750 179.993,34.900 181.074 C 37.031 183.076,38.800 185.237,38.800 185.837 C 38.800 186.147,38.968 186.400,39.173 186.400 C 39.378 186.400,39.657 186.751,39.794 187.180 C 39.930 187.608,40.372 188.064,40.777 188.193 C 41.183 188.321,41.741 188.976,42.019 189.647 C 42.297 190.318,42.950 191.029,43.470 191.226 C 43.989 191.424,44.581 192.023,44.784 192.559 C 44.988 193.094,45.526 193.650,45.981 193.794 C 46.436 193.939,47.075 194.571,47.400 195.200 C 47.725 195.829,48.355 196.459,48.800 196.600 C 49.245 196.741,49.881 197.384,50.215 198.028 C 50.561 198.698,51.145 199.200,51.578 199.200 C 52.733 199.200,54.795 200.517,54.797 201.257 C 54.800 201.943,55.581 202.400,56.750 202.400 C 57.175 202.400,57.580 202.888,57.817 203.688 C 58.138 204.765,58.460 205.028,59.795 205.301 C 60.672 205.480,61.932 206.141,62.595 206.769 C 63.258 207.398,64.240 208.045,64.778 208.207 C 65.315 208.370,66.042 208.858,66.393 209.291 C 66.800 209.793,67.715 210.156,68.916 210.292 L 70.800 210.504 70.800 233.005 L 70.800 255.506 67.843 255.783 C 65.038 256.046,63.200 256.911,63.200 257.969 C 63.200 258.155,62.038 258.431,60.617 258.583 C 58.465 258.814,57.990 259.002,57.765 259.711 C 57.419 260.799,56.790 261.422,55.681 261.774 C 55.115 261.954,54.800 262.377,54.800 262.959 C 54.800 263.507,54.419 264.069,53.836 264.380 C 52.366 265.167,52.325 267.327,52.469 336.800 L 52.600 399.800 53.700 401.671 C 54.305 402.700,54.797 403.960,54.793 404.471 C 54.779 406.188,56.172 409.992,56.900 410.228 C 57.371 410.380,57.602 410.871,57.606 411.727 C 57.614 413.271,57.992 413.923,59.244 414.547 C 59.980 414.914,60.271 415.496,60.528 417.111 C 60.806 418.855,61.021 419.240,61.831 419.443 C 62.507 419.613,62.800 419.966,62.800 420.611 C 62.800 421.781,64.021 423.944,64.765 424.089 C 65.075 424.150,65.541 424.830,65.800 425.600 C 66.160 426.672,66.540 427.047,67.417 427.201 C 68.232 427.343,68.630 427.692,68.791 428.401 C 68.929 429.012,69.516 429.633,70.303 430.000 C 71.010 430.330,71.689 430.900,71.811 431.267 C 72.029 431.922,73.629 432.729,75.600 433.177 C 76.241 433.323,76.646 433.727,76.728 434.302 C 76.856 435.203,77.446 435.473,79.770 435.690 C 80.595 435.768,81.135 436.154,81.600 437.000 C 82.146 437.992,82.549 438.221,83.930 438.323 C 85.000 438.402,85.600 438.639,85.600 438.983 C 85.600 441.080,87.665 441.382,103.000 441.530 C 121.257 441.706,122.792 441.581,124.610 439.764 C 125.742 438.632,126.268 438.400,127.707 438.400 C 129.650 438.400,130.400 437.876,130.400 436.520 C 130.400 435.725,130.603 435.599,131.900 435.595 C 134.080 435.587,135.142 435.214,135.411 434.364 C 135.542 433.951,136.268 433.320,137.025 432.961 C 138.025 432.487,138.400 432.049,138.400 431.354 C 138.400 430.571,138.605 430.400,139.546 430.400 C 141.068 430.400,142.560 429.168,143.628 427.029 C 144.109 426.068,144.929 425.052,145.451 424.773 C 146.033 424.461,146.400 423.904,146.400 423.332 C 146.400 422.626,146.623 422.400,147.320 422.400 C 148.399 422.400,149.200 421.710,149.200 420.781 C 149.200 420.419,149.818 419.487,150.573 418.709 C 151.375 417.883,152.059 416.693,152.217 415.848 C 152.367 415.051,152.636 414.400,152.816 414.400 C 153.798 414.400,154.400 413.013,154.400 410.751 C 154.400 408.464,154.452 408.340,155.573 407.949 C 157.642 407.228,157.600 408.770,157.600 334.030 C 157.600 258.382,157.696 262.226,155.800 261.600 C 154.841 261.284,154.434 260.869,154.269 260.043 C 154.061 259.004,153.868 258.898,151.776 258.682 C 149.564 258.454,149.366 258.331,147.972 256.316 C 147.847 256.134,146.270 255.872,144.469 255.733 L 141.193 255.481 141.297 233.057 L 141.400 210.633 142.677 210.372 C 143.379 210.228,144.517 209.636,145.207 209.055 C 145.897 208.475,146.763 207.994,147.131 207.987 C 147.947 207.972,148.970 207.213,149.275 206.396 C 149.399 206.064,150.371 205.560,151.435 205.275 C 153.713 204.666,154.400 204.174,154.400 203.151 C 154.400 202.677,154.683 202.400,155.167 202.400 C 156.455 202.400,157.200 201.952,157.200 201.176 C 157.200 200.727,157.743 200.180,158.585 199.780 C 159.347 199.419,160.071 198.807,160.193 198.422 C 160.315 198.037,160.862 197.518,161.408 197.269 C 162.145 196.933,162.400 196.507,162.400 195.609 C 162.400 194.530,162.530 194.400,163.609 194.400 C 164.509 194.400,164.933 194.145,165.272 193.402 C 165.522 192.853,166.328 192.050,167.063 191.616 C 167.798 191.182,168.400 190.580,168.400 190.278 C 168.400 189.976,168.850 189.523,169.400 189.273 C 170.139 188.936,170.400 188.508,170.400 187.634 C 170.400 186.591,170.555 186.436,171.700 186.325 C 172.833 186.216,173.048 186.007,173.371 184.700 C 173.627 183.660,173.962 183.200,174.460 183.200 C 175.184 183.200,176.400 181.349,176.400 180.249 C 176.400 179.924,176.854 179.301,177.408 178.865 C 177.963 178.429,178.606 177.528,178.838 176.862 C 179.070 176.197,179.690 175.371,180.216 175.026 C 180.929 174.559,181.240 173.891,181.438 172.400 C 181.610 171.101,181.895 170.400,182.252 170.400 C 183.420 170.400,184.400 168.848,184.400 167.000 C 184.400 165.679,184.557 165.200,184.991 165.200 C 185.946 165.200,186.827 163.440,187.203 160.781 C 187.442 159.085,187.845 157.991,188.477 157.319 C 189.268 156.477,189.420 155.833,189.538 152.816 C 189.667 149.529,189.743 149.259,190.683 148.756 C 192.041 148.029,192.400 146.897,192.400 143.338 C 192.400 140.699,192.511 140.238,193.300 139.600 C 195.615 137.727,195.615 95.475,193.300 93.600 C 192.596 93.031,192.400 92.459,192.400 90.980 C 192.400 88.904,191.005 85.600,190.129 85.600 C 189.735 85.600,189.600 84.796,189.600 82.450 C 189.600 78.120,189.307 76.872,188.254 76.722 C 187.546 76.621,187.381 76.291,187.290 74.800 C 187.162 72.683,186.545 71.279,185.300 70.271 C 184.636 69.733,184.400 69.119,184.400 67.931 C 184.400 65.964,183.391 63.714,182.361 63.388 C 181.943 63.255,181.600 62.782,181.600 62.337 C 181.600 61.892,181.060 61.054,180.400 60.475 C 179.740 59.896,179.200 59.113,179.200 58.735 C 179.200 58.357,179.020 57.936,178.800 57.800 C 178.580 57.664,178.400 57.216,178.400 56.805 C 178.400 56.394,177.950 55.704,177.400 55.271 C 176.850 54.839,176.400 54.204,176.400 53.861 C 176.400 53.518,175.770 52.939,175.000 52.573 C 174.230 52.208,173.600 51.652,173.600 51.338 C 173.600 50.111,171.982 47.600,171.192 47.600 C 170.573 47.600,170.400 47.329,170.400 46.363 C 170.400 45.469,170.182 45.068,169.614 44.920 C 169.182 44.807,168.471 44.109,168.035 43.370 C 167.599 42.631,166.793 41.913,166.244 41.775 C 165.629 41.621,165.199 41.193,165.123 40.662 C 165.050 40.154,164.477 39.554,163.724 39.200 C 163.023 38.870,162.344 38.195,162.217 37.700 C 162.089 37.205,161.726 36.800,161.409 36.800 C 161.093 36.800,160.336 36.175,159.727 35.412 C 159.117 34.648,158.127 33.916,157.526 33.784 C 156.925 33.652,155.891 32.926,155.229 32.172 C 154.566 31.417,153.653 30.800,153.200 30.800 C 152.746 30.800,152.263 30.485,152.127 30.100 C 151.730 28.981,150.733 28.000,149.993 28.000 C 149.617 28.000,148.631 27.460,147.800 26.800 C 146.798 26.004,145.837 25.600,144.945 25.600 C 143.914 25.600,143.600 25.431,143.600 24.876 C 143.600 23.313,142.713 22.832,139.326 22.556 C 136.233 22.304,136.026 22.228,135.593 21.183 C 135.094 19.979,134.231 19.614,131.864 19.605 C 130.758 19.602,130.124 19.348,129.600 18.700 L 128.871 17.800 106.227 17.690 L 83.583 17.581 82.573 18.590 M281.600 21.955 C 281.600 22.150,278.433 22.378,274.562 22.463 L 267.524 22.616 266.169 24.095 C 265.308 25.034,264.720 26.158,264.558 27.175 C 264.389 28.228,264.050 28.857,263.570 29.010 C 261.973 29.516,261.600 31.323,261.597 38.561 C 261.594 45.356,261.588 45.403,260.650 45.837 C 259.714 46.271,259.704 46.251,259.488 43.387 C 259.247 40.207,258.655 38.886,257.319 38.547 C 256.560 38.354,256.421 38.008,256.319 36.061 C 256.207 33.926,256.139 33.793,255.100 33.673 C 254.454 33.599,254.000 33.303,254.000 32.957 C 254.000 29.911,241.557 29.251,240.386 32.234 C 239.972 33.291,239.618 33.601,238.825 33.606 C 238.261 33.609,237.598 33.744,237.352 33.906 C 236.069 34.747,232.800 37.831,232.800 38.201 C 232.800 38.435,232.249 38.953,231.576 39.350 C 230.903 39.748,230.187 40.507,229.986 41.037 C 229.785 41.567,229.347 42.000,229.014 42.000 C 228.680 42.000,228.001 42.628,227.504 43.395 C 227.007 44.162,226.281 44.792,225.890 44.795 C 225.500 44.798,225.020 45.222,224.824 45.738 C 224.628 46.253,223.929 46.898,223.272 47.170 C 222.029 47.685,221.615 48.544,221.605 50.625 C 221.601 51.652,221.373 51.940,220.200 52.400 C 219.170 52.804,218.800 53.190,218.800 53.861 C 218.800 54.362,218.461 54.953,218.046 55.175 C 217.184 55.637,215.600 58.468,215.600 59.548 C 215.600 59.946,215.150 60.477,214.600 60.727 C 213.855 61.067,213.600 61.490,213.600 62.391 C 213.600 63.328,213.422 63.600,212.810 63.600 C 211.921 63.600,210.800 65.434,210.800 66.891 C 210.800 67.403,210.080 68.780,209.200 69.951 C 207.716 71.927,207.600 72.268,207.600 74.682 C 207.600 76.874,207.442 77.472,206.600 78.473 C 205.733 79.503,205.600 80.050,205.600 82.580 C 205.600 85.397,205.553 85.538,204.256 86.649 C 203.059 87.674,202.880 88.096,202.623 90.508 C 202.448 92.156,201.964 93.879,201.389 94.909 C 200.035 97.331,199.457 106.980,199.705 123.020 C 199.900 135.620,200.104 137.406,201.556 139.254 C 202.095 139.940,202.382 141.239,202.598 143.975 C 202.899 147.783,203.549 149.145,205.085 149.187 C 205.421 149.196,205.605 150.340,205.685 152.900 C 205.789 156.247,205.882 156.636,206.661 156.978 C 207.417 157.310,207.540 157.738,207.664 160.472 C 207.811 163.706,207.780 163.646,210.115 165.247 C 210.312 165.382,210.593 166.462,210.737 167.647 C 210.981 169.646,211.093 169.827,212.300 170.183 C 213.476 170.529,213.600 170.713,213.600 172.109 C 213.600 173.882,214.184 175.200,214.970 175.200 C 215.273 175.200,215.628 175.822,215.776 176.614 C 215.993 177.770,216.256 178.071,217.212 178.262 C 218.180 178.456,218.426 178.747,218.636 179.948 C 218.974 181.882,219.845 183.200,220.785 183.200 C 221.382 183.200,221.579 183.532,221.676 184.700 C 221.776 185.905,221.977 186.225,222.700 186.328 C 223.247 186.406,223.600 186.734,223.600 187.166 C 223.600 188.001,224.631 188.993,225.900 189.380 C 226.403 189.533,226.800 189.975,226.800 190.381 C 226.800 190.817,227.351 191.370,228.173 191.760 C 229.030 192.167,229.594 192.748,229.673 193.306 C 229.753 193.867,230.123 194.246,230.669 194.324 C 231.219 194.402,231.693 194.891,231.959 195.655 C 232.229 196.428,232.815 197.026,233.590 197.319 C 234.255 197.570,234.800 198.031,234.800 198.344 C 234.800 199.054,235.971 199.970,236.900 199.987 C 237.303 199.995,237.600 200.306,237.600 200.720 C 237.600 201.709,238.378 202.400,239.493 202.400 C 240.019 202.400,240.533 202.704,240.673 203.100 C 241.158 204.466,242.115 205.168,243.846 205.428 C 245.224 205.634,245.600 205.857,245.600 206.466 C 245.600 207.332,247.698 208.400,249.400 208.400 C 250.011 208.400,250.529 208.683,250.683 209.100 C 251.022 210.017,251.597 210.386,252.700 210.394 C 253.410 210.399,253.603 210.632,253.613 211.500 C 253.621 212.105,253.666 222.275,253.713 234.100 L 253.800 255.600 252.000 255.630 C 248.320 255.690,246.655 256.135,246.125 257.200 C 245.596 258.264,244.597 258.696,242.514 258.760 C 241.619 258.788,241.083 259.071,240.751 259.692 C 240.207 260.708,239.701 261.211,238.583 261.844 C 237.810 262.281,237.800 263.225,237.800 334.579 L 237.800 406.871 238.671 407.576 C 239.156 407.969,239.660 408.971,239.809 409.840 C 240.294 412.674,240.925 414.016,241.885 414.257 C 242.633 414.445,242.800 414.758,242.800 415.974 C 242.800 417.464,244.051 419.200,245.126 419.200 C 245.387 419.200,245.600 419.572,245.600 420.026 C 245.600 421.303,246.346 422.400,247.214 422.400 C 247.695 422.400,248.001 422.672,248.003 423.100 C 248.004 423.485,248.634 424.228,249.403 424.752 C 250.171 425.275,250.800 426.019,250.800 426.405 C 250.800 427.568,253.876 430.336,255.323 430.476 C 256.268 430.568,256.631 430.820,256.720 431.443 C 256.787 431.907,257.262 432.512,257.776 432.787 C 258.291 433.063,258.934 433.703,259.206 434.210 C 259.769 435.263,260.680 435.587,263.100 435.595 C 264.606 435.599,264.800 435.705,264.800 436.520 C 264.800 437.933,265.566 438.400,267.880 438.400 C 269.675 438.400,270.000 438.513,270.000 439.139 C 270.000 441.165,272.038 441.400,289.588 441.400 L 305.800 441.400 307.295 440.400 C 308.117 439.850,308.792 439.175,308.795 438.900 C 308.798 438.577,309.420 438.400,310.553 438.400 C 312.085 438.400,312.439 438.224,313.373 437.000 C 314.177 435.946,314.738 435.600,315.647 435.600 C 317.274 435.600,318.400 434.940,318.400 433.986 C 318.400 433.475,318.671 433.200,319.176 433.200 C 319.603 433.200,320.050 433.043,320.168 432.852 C 320.286 432.660,320.930 432.394,321.598 432.260 C 322.390 432.102,322.943 431.676,323.185 431.039 C 323.402 430.470,323.942 430.007,324.478 429.931 C 325.056 429.849,325.624 429.319,326.000 428.509 C 326.330 427.798,326.887 427.213,327.238 427.209 C 328.023 427.198,329.200 425.952,329.200 425.133 C 329.200 424.800,329.605 424.342,330.100 424.114 C 330.660 423.856,331.261 422.952,331.692 421.717 C 332.160 420.378,332.712 419.586,333.392 419.276 C 334.223 418.898,334.400 418.538,334.400 417.229 C 334.400 415.883,334.614 415.477,335.803 414.570 C 336.842 413.778,337.272 413.093,337.457 411.936 C 337.594 411.075,338.013 410.207,338.386 410.007 C 338.842 409.763,339.304 408.486,339.789 406.122 C 340.187 404.185,340.722 402.330,340.979 402.000 C 342.407 400.164,342.400 400.492,342.400 332.368 L 342.400 265.573 341.000 264.173 C 340.230 263.403,339.600 262.610,339.600 262.409 C 339.600 262.209,339.068 261.731,338.418 261.347 C 337.768 260.963,337.183 260.278,337.118 259.824 C 337.019 259.132,336.564 258.936,334.285 258.600 C 331.995 258.262,331.493 258.044,331.075 257.202 C 330.514 256.075,329.326 255.718,325.900 255.647 L 323.600 255.600 323.600 233.000 L 323.600 210.400 325.426 210.400 C 327.406 210.400,328.799 209.858,328.801 209.086 C 328.803 208.623,331.712 207.200,332.658 207.200 C 332.906 207.200,333.403 206.750,333.763 206.200 C 334.124 205.650,334.787 205.200,335.238 205.200 C 336.291 205.200,337.200 204.286,337.200 203.229 C 337.200 202.610,337.455 202.400,338.209 202.400 C 338.879 202.400,339.361 202.085,339.645 201.461 C 340.009 200.662,342.415 199.200,343.366 199.200 C 343.894 199.200,347.200 195.681,347.200 195.119 C 347.200 194.820,347.751 194.367,348.425 194.113 C 349.202 193.820,349.820 193.202,350.113 192.425 C 350.367 191.751,350.828 191.200,351.138 191.200 C 351.910 191.200,355.374 187.560,356.046 186.040 C 356.348 185.358,356.792 184.800,357.033 184.800 C 357.561 184.800,358.400 183.069,358.400 181.981 C 358.400 181.552,358.650 181.200,358.956 181.200 C 360.222 181.200,361.221 179.808,361.466 177.700 C 361.660 176.040,361.862 175.600,362.427 175.600 C 363.433 175.600,364.400 174.517,364.400 173.390 C 364.400 172.865,364.850 171.986,365.400 171.436 C 366.137 170.699,366.400 170.011,366.400 168.818 C 366.400 167.381,366.506 167.200,367.351 167.200 C 368.623 167.200,369.070 166.568,369.410 164.289 C 369.588 163.088,369.956 162.238,370.399 162.001 C 371.419 161.455,372.400 158.699,372.400 156.379 C 372.400 154.835,372.561 154.316,373.100 154.117 C 374.277 153.683,374.388 153.170,374.394 148.143 C 374.400 143.314,374.406 143.285,375.388 143.039 C 377.094 142.611,377.371 141.481,377.531 134.300 C 377.613 130.615,377.843 127.600,378.040 127.600 C 378.238 127.600,378.406 126.925,378.414 126.100 C 378.422 125.275,378.686 124.150,379.000 123.600 C 380.051 121.762,379.794 114.956,378.595 112.859 C 377.624 111.159,377.600 110.923,377.598 102.859 C 377.595 93.722,377.331 92.118,375.588 90.652 C 374.453 89.696,374.400 89.509,374.400 86.455 C 374.400 83.574,374.307 83.185,373.458 82.517 C 372.660 81.889,372.487 81.322,372.324 78.788 C 372.123 75.652,371.523 74.178,370.320 73.863 C 369.831 73.735,369.600 73.294,369.600 72.487 C 369.600 70.199,369.093 68.813,367.752 67.432 C 366.955 66.611,366.400 65.633,366.400 65.049 C 366.400 64.468,365.986 63.732,365.400 63.271 C 364.850 62.839,364.400 62.204,364.400 61.862 C 364.400 61.519,363.770 60.627,363.000 59.879 C 362.158 59.061,361.600 58.132,361.600 57.549 C 361.600 56.140,360.516 54.800,359.377 54.800 C 358.459 54.800,358.400 54.667,358.400 52.591 C 358.400 50.658,358.282 50.329,357.455 49.952 C 356.936 49.716,356.261 48.960,355.955 48.272 C 355.615 47.505,355.014 46.934,354.400 46.795 C 353.801 46.658,353.353 46.243,353.282 45.757 C 353.208 45.250,352.648 44.761,351.782 44.448 C 350.929 44.139,350.400 43.683,350.400 43.254 C 350.400 42.365,349.635 41.600,348.746 41.600 C 348.317 41.600,347.861 41.071,347.552 40.218 C 347.239 39.352,346.750 38.792,346.243 38.718 C 345.756 38.647,345.343 38.200,345.208 37.600 C 345.071 36.988,344.485 36.367,343.700 36.000 C 342.995 35.670,342.413 35.104,342.409 34.743 C 342.400 34.066,341.638 33.612,340.467 33.585 C 340.100 33.576,339.436 32.991,338.992 32.285 C 337.288 29.575,324.000 29.904,324.000 32.655 C 324.000 33.005,323.283 33.946,322.406 34.746 C 320.869 36.148,320.802 36.314,320.543 39.400 C 320.370 41.452,320.020 42.959,319.566 43.600 C 318.943 44.481,318.842 45.840,318.719 55.010 C 318.569 66.104,318.231 67.952,316.278 68.328 C 315.648 68.449,315.600 67.074,315.596 48.929 C 315.591 26.962,315.558 26.483,314.006 25.942 C 313.381 25.724,312.693 25.029,312.365 24.284 C 311.686 22.741,310.426 22.490,303.100 22.435 C 300.257 22.414,298.400 22.242,298.400 22.000 C 298.400 21.746,295.333 21.600,290.000 21.600 C 285.380 21.600,281.600 21.760,281.600 21.955 M113.579 34.422 C 118.418 34.769,119.655 34.994,121.179 35.802 C 122.181 36.333,124.170 37.058,125.600 37.413 C 127.030 37.768,128.755 38.381,129.433 38.776 C 130.110 39.171,131.312 39.707,132.103 39.968 C 132.894 40.229,135.006 41.423,136.796 42.621 C 138.586 43.820,140.175 44.804,140.326 44.809 C 140.477 44.814,141.050 45.183,141.600 45.629 C 142.150 46.075,143.230 46.857,144.000 47.367 C 146.983 49.342,155.185 57.293,157.622 60.573 C 158.380 61.593,159.513 63.096,160.140 63.914 C 160.767 64.731,161.609 66.042,162.011 66.827 C 162.413 67.611,163.009 68.476,163.337 68.747 C 163.991 69.291,168.947 79.182,169.858 81.764 C 170.173 82.657,170.704 83.805,171.039 84.316 C 171.374 84.827,171.911 86.751,172.232 88.591 C 172.553 90.431,173.266 92.954,173.816 94.197 C 174.490 95.722,174.950 97.782,175.229 100.528 C 175.456 102.768,175.904 106.940,176.225 109.800 C 176.955 116.319,176.953 118.512,176.216 125.000 C 175.891 127.860,175.453 131.926,175.244 134.036 C 174.999 136.510,174.507 138.721,173.859 140.261 C 173.306 141.574,172.576 144.239,172.237 146.182 C 171.898 148.125,171.347 150.017,171.013 150.385 C 170.680 150.754,170.070 152.033,169.658 153.228 C 168.799 155.722,165.185 163.047,163.767 165.167 C 163.240 165.955,162.181 167.500,161.413 168.600 C 160.645 169.700,159.357 171.590,158.551 172.800 C 155.442 177.468,140.827 190.800,138.819 190.800 C 138.622 190.800,137.953 191.226,137.331 191.746 C 134.633 194.001,125.069 197.751,116.600 199.872 C 112.528 200.893,99.561 200.892,94.800 199.871 C 91.011 199.059,82.285 196.223,80.913 195.358 C 80.425 195.050,79.075 194.442,77.913 194.006 C 76.751 193.570,75.350 192.803,74.800 192.301 C 74.250 191.799,73.040 191.051,72.112 190.639 C 71.183 190.227,70.107 189.539,69.720 189.112 C 69.333 188.684,68.455 188.100,67.770 187.813 C 66.724 187.376,63.400 184.321,60.732 181.345 C 60.365 180.935,58.778 179.340,57.205 177.800 C 55.633 176.260,53.963 174.370,53.494 173.600 C 53.026 172.830,52.541 172.110,52.418 172.000 C 51.973 171.602,48.060 166.058,47.576 165.140 C 47.304 164.623,46.665 163.700,46.156 163.088 C 45.648 162.477,45.112 161.335,44.964 160.551 C 44.817 159.767,44.090 158.118,43.349 156.887 C 42.607 155.655,42.000 154.406,42.000 154.112 C 42.000 153.818,41.385 152.277,40.632 150.689 C 39.402 148.090,38.782 145.949,37.186 138.800 C 36.916 137.590,36.562 136.420,36.400 136.200 C 34.620 133.789,34.258 104.344,35.950 99.600 C 36.460 98.170,37.231 95.380,37.663 93.400 C 38.538 89.388,40.188 84.268,41.041 82.914 C 41.349 82.427,41.892 81.167,42.250 80.114 C 42.607 79.061,43.228 77.782,43.630 77.272 C 44.031 76.761,44.632 75.408,44.964 74.264 C 45.297 73.120,46.111 71.468,46.773 70.592 C 47.436 69.717,47.983 68.838,47.989 68.639 C 48.000 68.262,49.680 65.901,51.900 63.141 C 52.615 62.252,53.200 61.354,53.200 61.145 C 53.200 60.507,65.296 48.624,67.000 47.588 C 67.880 47.053,68.870 46.390,69.200 46.114 C 70.083 45.376,76.469 41.254,77.400 40.821 C 81.165 39.070,84.932 37.556,86.051 37.345 C 86.793 37.206,88.506 36.566,89.858 35.924 C 93.452 34.218,102.625 33.637,113.579 34.422 M294.658 40.410 C 295.332 40.646,296.298 41.535,296.920 42.495 L 298.006 44.170 298.002 87.185 C 297.997 131.520,298.018 132.097,299.641 134.162 C 301.558 136.598,301.573 136.600,318.000 136.600 C 335.023 136.600,335.358 136.552,337.119 133.892 L 338.200 132.259 338.400 98.230 C 338.510 79.513,338.754 63.885,338.943 63.500 C 340.057 61.226,344.511 64.233,346.791 68.800 C 347.286 69.790,348.014 70.960,348.410 71.400 C 348.807 71.840,349.435 73.138,349.807 74.285 C 350.178 75.432,350.716 76.564,351.001 76.801 C 351.286 77.038,351.913 78.259,352.394 79.516 C 352.875 80.772,353.509 82.255,353.804 82.811 C 354.975 85.020,356.393 89.366,357.213 93.264 C 357.689 95.521,358.438 98.275,358.878 99.384 C 360.621 103.774,360.605 130.621,358.856 135.057 C 358.431 136.137,357.698 138.816,357.229 141.010 C 356.273 145.480,354.946 149.784,354.144 151.021 C 353.851 151.473,353.246 152.905,352.799 154.202 C 352.353 155.500,351.631 156.942,351.194 157.406 C 350.758 157.870,350.127 159.175,349.791 160.306 C 349.455 161.437,348.762 162.866,348.251 163.481 C 347.740 164.096,347.069 165.077,346.761 165.660 C 343.725 171.399,331.039 185.814,327.337 187.730 C 326.712 188.053,325.237 188.967,324.060 189.759 C 322.883 190.552,321.699 191.200,321.430 191.200 C 321.160 191.200,320.521 191.645,320.009 192.190 C 319.498 192.734,318.252 193.492,317.240 193.873 C 316.228 194.255,314.860 194.879,314.200 195.261 C 306.564 199.679,288.437 202.033,278.524 199.893 C 274.329 198.987,265.924 196.270,264.236 195.274 C 263.520 194.852,262.267 194.286,261.450 194.016 C 260.633 193.747,259.208 192.951,258.282 192.248 C 257.357 191.546,256.021 190.733,255.313 190.442 C 254.606 190.152,253.808 189.650,253.540 189.328 C 253.272 189.005,252.375 188.395,251.545 187.972 C 249.001 186.674,238.057 175.439,235.266 171.261 C 234.460 170.053,233.394 168.510,232.899 167.832 C 230.554 164.627,229.894 163.383,224.179 151.400 C 223.333 149.626,222.673 147.428,222.380 145.404 C 222.125 143.646,221.496 141.379,220.983 140.366 C 220.327 139.072,219.924 137.286,219.629 134.362 C 219.398 132.073,218.989 128.130,218.721 125.600 C 218.453 123.070,218.233 119.200,218.233 117.000 C 218.233 113.321,218.417 111.063,219.624 99.898 C 219.891 97.433,220.394 95.223,220.991 93.898 C 221.510 92.744,222.137 90.459,222.383 88.821 C 222.665 86.952,223.257 85.088,223.971 83.821 C 224.598 82.709,225.245 81.350,225.410 80.800 C 225.574 80.250,226.520 78.180,227.511 76.200 C 230.762 69.704,230.977 69.331,233.765 65.352 C 234.506 64.293,237.490 62.783,238.258 63.077 C 239.997 63.745,240.000 63.810,240.000 98.000 L 240.000 130.440 241.100 133.011 C 242.641 136.615,242.204 136.518,257.800 136.716 C 277.274 136.963,277.973 136.809,279.576 131.915 L 280.456 129.229 280.415 87.206 C 280.373 43.949,280.411 42.838,281.982 41.416 C 283.435 40.101,291.854 39.433,294.658 40.410 M254.806 46.063 C 255.033 46.885,255.829 48.069,256.619 48.763 C 258.104 50.067,258.336 50.111,263.997 50.169 L 266.994 50.200 267.308 53.000 C 267.481 54.540,267.572 70.290,267.511 88.000 C 267.376 127.260,268.005 124.151,260.183 124.183 C 251.994 124.217,252.628 127.339,252.468 86.200 C 252.311 46.043,252.744 38.621,254.806 46.063 M323.994 56.903 C 323.997 58.390,324.398 62.260,324.884 65.503 C 326.160 74.012,326.290 118.814,325.046 121.318 C 323.061 125.313,313.388 125.663,311.774 121.798 C 310.970 119.875,311.109 73.526,311.925 71.118 C 312.520 69.365,313.300 69.445,313.996 71.329 C 314.915 73.816,314.890 73.800,317.982 73.800 C 319.574 73.800,321.034 73.702,321.227 73.583 C 321.767 73.250,322.705 65.666,323.024 59.066 C 323.312 53.108,323.982 51.614,323.994 56.903 M59.400 111.711 C 57.644 112.283,55.695 113.858,54.932 115.321 C 53.770 117.550,54.302 127.450,55.826 131.938 C 56.161 132.923,56.622 135.186,56.852 136.965 C 57.126 139.095,57.663 140.974,58.425 142.466 C 59.061 143.712,59.776 145.601,60.015 146.665 C 60.253 147.729,60.764 148.960,61.150 149.400 C 61.536 149.840,62.195 151.010,62.615 152.000 C 64.036 155.354,70.018 163.720,73.077 166.631 C 76.812 170.185,77.431 170.691,80.600 172.778 C 82.360 173.937,83.890 175.006,84.000 175.153 C 84.547 175.885,91.248 178.755,92.972 178.995 C 94.057 179.147,96.127 179.640,97.572 180.092 C 103.680 182.000,108.645 180.963,110.787 177.333 C 113.514 172.710,109.713 168.689,101.033 167.015 C 96.363 166.114,91.726 164.097,88.600 161.607 C 87.060 160.381,85.170 158.936,84.400 158.397 C 82.079 156.771,79.099 153.524,77.613 151.000 C 77.095 150.120,76.353 149.040,75.965 148.600 C 75.577 148.160,74.872 146.810,74.398 145.600 C 73.925 144.390,73.290 143.126,72.989 142.791 C 71.302 140.916,68.153 129.124,67.611 122.648 C 66.900 114.161,63.948 110.229,59.400 111.711 M99.759 213.640 C 102.694 214.062,107.386 213.982,115.000 213.379 C 121.381 212.874,121.244 212.316,121.110 238.221 L 121.000 259.536 120.000 260.620 C 118.099 262.679,117.304 262.800,105.713 262.798 C 94.119 262.795,92.485 262.579,91.341 260.893 C 90.226 259.249,90.190 216.391,91.302 214.693 C 92.073 213.517,94.039 212.750,95.600 213.016 C 96.150 213.110,98.022 213.391,99.759 213.640 M302.790 213.957 C 304.308 215.053,304.318 215.203,304.360 237.800 C 304.411 265.671,306.163 262.913,288.529 262.722 C 271.935 262.542,273.434 264.908,273.288 238.671 C 273.142 212.640,273.118 212.726,280.400 213.456 C 284.920 213.910,296.290 213.780,297.800 213.259 C 299.327 212.731,301.517 213.037,302.790 213.957 M136.851 276.227 C 139.769 277.735,139.582 273.674,139.588 335.600 L 139.593 391.000 138.441 396.683 C 137.269 402.464,136.927 403.285,133.164 409.354 C 131.619 411.844,128.053 415.491,125.635 417.051 C 124.406 417.845,122.680 418.990,121.800 419.597 C 111.287 426.844,93.590 424.549,82.816 414.542 C 78.910 410.915,75.321 405.350,74.088 401.009 C 73.586 399.244,72.873 396.900,72.504 395.800 C 71.808 393.730,71.156 285.904,71.807 280.487 C 72.111 277.959,73.239 276.472,75.206 276.010 C 78.101 275.329,135.506 275.531,136.851 276.227 M319.083 277.410 C 322.264 277.955,322.000 272.692,322.000 335.554 L 321.999 391.400 321.031 395.000 C 320.498 396.980,319.854 399.680,319.599 401.000 C 319.240 402.860,318.536 404.298,316.468 407.394 C 311.140 415.369,305.986 419.168,297.488 421.384 C 289.388 423.497,286.860 423.364,277.000 420.307 C 273.264 419.149,263.200 411.286,263.200 409.525 C 263.200 409.300,262.640 408.408,261.955 407.544 C 260.297 405.449,258.496 401.069,257.468 396.626 C 256.641 393.052,256.627 392.205,256.496 337.400 C 256.354 277.547,256.299 279.762,257.946 278.116 L 259.061 277.000 288.431 277.095 C 304.584 277.147,318.377 277.289,319.083 277.410 M286.854 286.315 C 284.791 287.003,282.186 289.825,281.598 292.009 C 279.276 300.630,292.084 305.684,295.592 297.531 C 298.414 290.970,293.152 284.216,286.854 286.315 M101.857 288.336 C 96.597 292.096,99.084 300.394,105.474 300.399 C 109.324 300.401,111.406 298.814,112.181 295.285 C 113.450 289.507,106.636 284.920,101.857 288.336 M287.047 319.008 C 281.769 320.823,281.438 322.160,281.200 342.600 C 280.966 362.754,281.179 361.727,276.782 363.883 C 270.188 367.115,263.981 375.491,263.138 382.292 C 262.416 388.126,263.265 396.553,264.800 398.786 C 265.184 399.344,265.975 400.649,266.558 401.688 C 268.059 404.358,271.810 408.280,274.184 409.660 C 275.293 410.305,276.650 411.185,277.200 411.616 C 279.004 413.030,288.436 414.589,291.600 413.996 C 293.030 413.728,295.503 413.275,297.095 412.989 C 299.801 412.502,304.198 410.183,306.320 408.123 C 306.605 407.845,307.145 407.389,307.520 407.109 C 312.050 403.720,316.338 392.869,315.861 386.000 C 315.236 376.997,309.121 367.559,301.475 363.800 C 297.167 361.682,297.432 362.962,297.189 343.071 C 297.003 327.872,296.893 325.585,296.275 324.011 C 294.669 319.921,290.682 317.759,287.047 319.008 M104.400 319.961 C 99.177 321.638,99.081 322.031,98.819 342.800 C 98.564 363.091,98.630 362.775,94.219 364.618 C 91.994 365.547,88.490 368.478,85.564 371.854 C 77.051 381.679,79.301 399.972,89.984 407.784 C 95.496 411.815,95.911 411.993,100.981 412.500 C 115.033 413.904,123.610 409.353,129.438 397.403 L 130.995 394.209 130.995 387.134 C 130.995 380.616,130.930 379.971,130.168 378.930 C 129.714 378.309,128.826 376.739,128.196 375.442 C 127.494 373.999,126.015 372.059,124.383 370.442 C 120.229 366.325,119.428 365.691,117.066 364.646 C 115.452 363.933,114.553 363.210,113.729 361.965 L 112.600 360.260 112.400 342.564 L 112.200 324.867 111.000 323.171 C 108.963 320.293,106.737 319.210,104.400 319.961 M110.155 376.781 C 114.379 378.592,118.172 384.663,117.366 388.325 C 114.658 400.624,102.090 403.592,95.551 393.476 C 89.683 384.396,100.110 372.475,110.155 376.781 M292.644 378.017 C 297.779 379.969,300.714 387.006,298.358 391.716 C 293.553 401.322,279.200 398.332,279.200 387.726 C 279.200 380.798,286.359 375.627,292.644 378.017 " stroke="none" fill="#070606" fill-rule="evenodd"></path><path id="path4" d="M97.058 34.436 C 93.050 34.707,91.937 34.937,89.858 35.924 C 88.506 36.566,86.793 37.206,86.051 37.345 C 84.932 37.556,81.165 39.070,77.400 40.821 C 76.469 41.254,70.083 45.376,69.200 46.114 C 68.870 46.390,67.880 47.053,67.000 47.588 C 65.296 48.624,53.200 60.507,53.200 61.145 C 53.200 61.354,52.615 62.252,51.900 63.141 C 49.680 65.901,48.000 68.262,47.989 68.639 C 47.983 68.838,47.436 69.717,46.773 70.592 C 46.111 71.468,45.297 73.120,44.964 74.264 C 44.632 75.408,44.031 76.761,43.630 77.272 C 43.228 77.782,42.607 79.061,42.250 80.114 C 41.892 81.167,41.349 82.427,41.041 82.914 C 40.188 84.268,38.538 89.388,37.663 93.400 C 37.231 95.380,36.460 98.170,35.950 99.600 C 34.258 104.344,34.620 133.789,36.400 136.200 C 36.562 136.420,36.916 137.590,37.186 138.800 C 38.782 145.949,39.402 148.090,40.632 150.689 C 41.385 152.277,42.000 153.818,42.000 154.112 C 42.000 154.406,42.607 155.655,43.349 156.887 C 44.090 158.118,44.817 159.767,44.964 160.551 C 45.112 161.335,45.648 162.477,46.156 163.088 C 46.665 163.700,47.304 164.623,47.576 165.140 C 48.060 166.058,51.973 171.602,52.418 172.000 C 52.541 172.110,53.026 172.830,53.494 173.600 C 53.963 174.370,55.633 176.260,57.205 177.800 C 58.778 179.340,60.365 180.935,60.732 181.345 C 63.400 184.321,66.724 187.376,67.770 187.813 C 68.455 188.100,69.333 188.684,69.720 189.112 C 70.107 189.539,71.183 190.227,72.112 190.639 C 73.040 191.051,74.250 191.799,74.800 192.301 C 75.350 192.803,76.751 193.570,77.913 194.006 C 79.075 194.442,80.425 195.050,80.913 195.358 C 82.285 196.223,91.011 199.059,94.800 199.871 C 99.561 200.892,112.528 200.893,116.600 199.872 C 125.069 197.751,134.633 194.001,137.331 191.746 C 137.953 191.226,138.622 190.800,138.819 190.800 C 140.827 190.800,155.442 177.468,158.551 172.800 C 159.357 171.590,160.645 169.700,161.413 168.600 C 162.181 167.500,163.240 165.955,163.767 165.167 C 165.185 163.047,168.799 155.722,169.658 153.228 C 170.070 152.033,170.680 150.754,171.013 150.385 C 171.347 150.017,171.898 148.125,172.237 146.182 C 172.576 144.239,173.306 141.574,173.859 140.261 C 174.507 138.721,174.999 136.510,175.244 134.036 C 175.453 131.926,175.891 127.860,176.216 125.000 C 176.953 118.512,176.955 116.319,176.225 109.800 C 175.904 106.940,175.456 102.768,175.229 100.528 C 174.950 97.782,174.490 95.722,173.816 94.197 C 173.266 92.954,172.553 90.431,172.232 88.591 C 171.911 86.751,171.374 84.827,171.039 84.316 C 170.704 83.805,170.173 82.657,169.858 81.764 C 168.947 79.182,163.991 69.291,163.337 68.747 C 163.009 68.476,162.413 67.611,162.011 66.827 C 161.609 66.042,160.767 64.731,160.140 63.914 C 159.513 63.096,158.380 61.593,157.622 60.573 C 155.185 57.293,146.983 49.342,144.000 47.367 C 143.230 46.857,142.150 46.075,141.600 45.629 C 141.050 45.183,140.477 44.814,140.326 44.809 C 140.175 44.804,138.586 43.820,136.796 42.621 C 135.006 41.423,132.894 40.229,132.103 39.968 C 131.312 39.707,130.110 39.171,129.433 38.776 C 128.755 38.381,127.030 37.768,125.600 37.413 C 124.170 37.058,122.181 36.333,121.179 35.802 C 118.271 34.259,108.155 33.686,97.058 34.436 M115.659 37.195 C 123.562 38.797,131.750 41.793,135.748 44.546 C 136.909 45.346,137.979 46.000,138.125 46.000 C 141.028 46.000,156.102 60.966,160.600 68.314 C 160.820 68.673,161.585 69.850,162.300 70.929 C 163.015 72.007,163.600 73.125,163.600 73.412 C 163.600 73.699,164.204 75.074,164.943 76.467 C 165.681 77.860,166.426 79.447,166.599 79.993 C 166.772 80.539,167.539 82.339,168.305 83.993 C 169.070 85.647,170.053 88.530,170.489 90.400 C 170.925 92.270,171.811 95.600,172.457 97.800 C 174.912 106.159,174.908 128.965,172.451 136.672 C 171.807 138.691,171.157 141.121,171.006 142.072 C 170.381 146.025,168.682 150.384,163.241 162.000 C 162.607 163.353,159.872 167.379,156.433 172.022 C 153.247 176.324,144.576 184.553,140.347 187.289 C 138.286 188.623,135.700 190.297,134.600 191.011 C 133.500 191.724,131.610 192.627,130.400 193.016 C 129.190 193.406,127.570 194.048,126.800 194.443 C 124.776 195.482,116.044 197.487,110.641 198.153 C 103.476 199.037,89.462 196.968,84.057 194.229 C 83.028 193.708,81.461 193.086,80.575 192.847 C 79.158 192.466,70.332 187.209,67.600 185.120 C 61.311 180.310,46.505 161.736,46.413 158.541 C 46.406 158.288,45.840 157.028,45.156 155.741 C 43.625 152.858,41.757 147.652,40.730 143.400 C 40.305 141.640,39.524 138.580,38.994 136.600 C 36.260 126.375,36.260 107.766,38.995 98.000 C 39.518 96.130,40.072 93.791,40.225 92.802 C 40.570 90.576,43.777 81.456,44.793 79.811 C 45.205 79.145,45.843 77.713,46.211 76.628 C 46.579 75.544,47.312 73.973,47.840 73.136 C 48.368 72.300,48.800 71.445,48.800 71.237 C 48.800 71.028,49.057 70.600,49.371 70.286 C 49.685 69.972,51.517 67.484,53.442 64.758 C 56.751 60.071,65.204 51.100,68.000 49.308 C 76.923 43.588,78.164 42.909,83.800 40.661 C 95.381 36.042,104.876 35.009,115.659 37.195 M284.084 40.394 C 280.194 41.315,280.368 39.100,280.415 87.206 L 280.456 129.229 279.576 131.915 C 277.973 136.809,277.274 136.963,257.800 136.716 C 242.204 136.518,242.641 136.615,241.100 133.011 L 240.000 130.440 240.000 98.000 C 240.000 63.810,239.997 63.745,238.258 63.077 C 237.490 62.783,234.506 64.293,233.765 65.352 C 230.977 69.331,230.762 69.704,227.511 76.200 C 226.520 78.180,225.574 80.250,225.410 80.800 C 225.245 81.350,224.598 82.709,223.971 83.821 C 223.257 85.088,222.665 86.952,222.383 88.821 C 222.137 90.459,221.510 92.744,220.991 93.898 C 220.394 95.223,219.891 97.433,219.624 99.898 C 218.417 111.063,218.233 113.321,218.233 117.000 C 218.233 119.200,218.453 123.070,218.721 125.600 C 218.989 128.130,219.398 132.073,219.629 134.362 C 219.924 137.286,220.327 139.072,220.983 140.366 C 221.496 141.379,222.125 143.646,222.380 145.404 C 222.673 147.428,223.333 149.626,224.179 151.400 C 229.894 163.383,230.554 164.627,232.899 167.832 C 233.394 168.510,234.460 170.053,235.266 171.261 C 238.057 175.439,249.001 186.674,251.545 187.972 C 252.375 188.395,253.272 189.005,253.540 189.328 C 253.808 189.650,254.606 190.152,255.313 190.442 C 256.021 190.733,257.357 191.546,258.282 192.248 C 259.208 192.951,260.633 193.747,261.450 194.016 C 262.267 194.286,263.520 194.852,264.236 195.274 C 265.924 196.270,274.329 198.987,278.524 199.893 C 288.437 202.033,306.564 199.679,314.200 195.261 C 314.860 194.879,316.228 194.255,317.240 193.873 C 318.252 193.492,319.498 192.734,320.009 192.190 C 320.521 191.645,321.160 191.200,321.430 191.200 C 321.699 191.200,322.883 190.552,324.060 189.759 C 325.237 188.967,326.712 188.053,327.337 187.730 C 331.039 185.814,343.725 171.399,346.761 165.660 C 347.069 165.077,347.740 164.096,348.251 163.481 C 348.762 162.866,349.455 161.437,349.791 160.306 C 350.127 159.175,350.758 157.870,351.194 157.406 C 351.631 156.942,352.353 155.500,352.799 154.202 C 353.246 152.905,353.851 151.473,354.144 151.021 C 354.946 149.784,356.273 145.480,357.229 141.010 C 357.698 138.816,358.431 136.137,358.856 135.057 C 360.605 130.621,360.621 103.774,358.878 99.384 C 358.438 98.275,357.689 95.521,357.213 93.264 C 356.393 89.366,354.975 85.020,353.804 82.811 C 353.509 82.255,352.875 80.772,352.394 79.516 C 351.913 78.259,351.286 77.038,351.001 76.801 C 350.716 76.564,350.178 75.432,349.807 74.285 C 349.435 73.138,348.807 71.840,348.410 71.400 C 348.014 70.960,347.286 69.790,346.791 68.800 C 344.511 64.233,340.057 61.226,338.943 63.500 C 338.754 63.885,338.510 79.513,338.400 98.230 L 338.200 132.259 337.119 133.892 C 335.358 136.552,335.023 136.600,318.000 136.600 C 301.573 136.600,301.558 136.598,299.641 134.162 C 298.018 132.097,297.997 131.520,298.002 87.185 L 298.006 44.170 296.920 42.495 C 295.378 40.116,289.391 39.136,284.084 40.394 M294.624 42.968 C 295.382 43.522,295.405 44.566,295.600 87.868 L 295.800 132.200 297.006 134.200 C 298.033 135.904,298.682 136.437,301.386 137.800 L 304.561 139.400 318.181 139.400 C 335.761 139.400,337.594 138.831,339.817 132.682 L 340.800 129.964 340.800 99.426 C 340.800 69.936,340.826 68.856,341.566 67.944 L 342.332 67.000 343.395 67.997 C 344.827 69.340,347.798 74.295,348.598 76.673 C 348.954 77.733,349.666 79.230,350.178 80.000 C 350.691 80.770,351.505 82.651,351.986 84.180 C 352.468 85.709,353.106 87.432,353.405 88.009 C 353.703 88.585,354.245 90.574,354.609 92.429 C 354.973 94.283,355.604 96.970,356.011 98.400 C 358.478 107.059,358.545 127.308,356.133 135.600 C 355.782 136.810,355.087 139.600,354.590 141.800 C 353.409 147.031,350.951 153.905,349.751 155.331 C 349.228 155.953,348.800 156.793,348.800 157.197 C 348.800 161.429,333.263 181.022,326.085 185.844 C 319.160 190.495,315.260 192.800,314.314 192.800 C 314.025 192.800,312.711 193.325,311.394 193.967 C 307.639 195.797,299.288 197.700,292.159 198.351 C 285.819 198.930,271.256 196.434,267.189 194.071 C 266.425 193.628,264.990 193.051,264.000 192.791 C 262.371 192.362,260.490 191.252,253.000 186.300 C 250.408 184.586,240.535 175.087,238.968 172.800 C 238.441 172.030,237.422 170.558,236.705 169.529 C 232.874 164.033,231.534 161.937,230.961 160.542 C 230.613 159.694,229.823 157.920,229.205 156.600 C 226.213 150.205,224.408 145.564,223.992 143.200 C 223.741 141.770,222.994 138.980,222.333 137.000 C 219.938 129.823,219.808 104.764,222.132 98.118 C 222.686 96.534,223.437 93.782,223.799 92.004 C 224.162 90.226,225.093 87.383,225.868 85.686 C 226.643 83.989,227.696 81.489,228.209 80.131 C 228.721 78.773,229.417 77.240,229.755 76.725 C 230.093 76.209,230.631 75.045,230.951 74.138 C 231.797 71.741,234.732 67.600,235.586 67.600 C 237.267 67.600,237.259 67.446,237.215 98.833 C 237.164 135.467,237.063 134.825,243.389 138.000 L 246.178 139.400 258.975 139.526 C 276.689 139.700,279.212 138.906,282.239 132.200 C 282.443 131.749,282.687 112.306,282.800 87.600 L 283.000 43.800 284.400 43.101 C 286.226 42.189,293.430 42.095,294.624 42.968 M253.500 43.857 C 252.082 46.280,251.903 118.925,253.308 121.496 C 254.548 123.764,255.667 124.202,260.183 124.183 C 268.005 124.151,267.376 127.260,267.511 88.000 C 267.572 70.290,267.481 54.540,267.308 53.000 L 266.994 50.200 263.997 50.169 C 258.336 50.111,258.104 50.067,256.619 48.763 C 255.829 48.069,255.033 46.885,254.806 46.063 C 254.320 44.309,253.774 43.388,253.500 43.857 M262.487 52.418 C 265.419 53.231,265.200 50.451,265.200 86.829 C 265.200 119.281,265.192 119.608,264.384 120.416 C 262.167 122.633,256.894 122.418,255.632 120.060 C 254.964 118.812,255.030 52.736,255.700 52.043 C 256.248 51.477,259.801 51.673,262.487 52.418 M323.024 59.066 C 322.705 65.666,321.767 73.250,321.227 73.583 C 321.034 73.702,319.574 73.800,317.982 73.800 C 314.890 73.800,314.915 73.816,313.996 71.329 C 313.300 69.445,312.520 69.365,311.925 71.118 C 311.109 73.526,310.970 119.875,311.774 121.798 C 313.388 125.663,323.061 125.313,325.046 121.318 C 326.290 118.814,326.160 74.012,324.884 65.503 C 324.398 62.260,323.997 58.390,323.994 56.903 C 323.982 51.614,323.312 53.108,323.024 59.066 M322.871 77.800 C 323.221 79.781,323.294 117.029,322.951 118.744 C 322.270 122.150,316.521 123.486,314.236 120.769 L 313.200 119.539 313.200 98.569 C 313.200 73.600,312.635 75.907,318.708 76.086 L 322.588 76.200 322.871 77.800 M58.554 109.443 C 54.618 110.849,52.000 114.784,52.000 119.294 C 52.000 123.090,52.888 130.570,53.675 133.400 C 54.104 134.940,54.949 138.122,55.554 140.471 C 56.159 142.820,56.863 144.994,57.119 145.303 C 57.375 145.611,58.036 147.064,58.589 148.531 C 61.872 157.254,71.336 169.426,78.295 173.878 C 79.558 174.686,80.942 175.674,81.371 176.073 C 81.800 176.473,82.331 176.800,82.551 176.800 C 82.772 176.800,84.133 177.501,85.576 178.358 C 87.019 179.215,88.912 180.040,89.781 180.191 C 90.651 180.343,92.080 180.833,92.956 181.280 C 96.099 182.883,104.322 183.717,107.711 182.776 C 115.683 180.562,115.652 168.861,107.668 166.570 C 106.420 166.212,103.690 165.408,101.600 164.784 C 99.510 164.159,96.787 163.433,95.548 163.171 C 90.078 162.013,78.131 150.207,75.831 143.687 C 75.521 142.810,74.800 141.350,74.228 140.445 C 73.656 139.539,72.914 137.493,72.579 135.899 C 72.244 134.304,71.613 131.845,71.177 130.433 C 70.741 129.022,70.197 125.602,69.967 122.833 C 69.095 112.314,64.758 107.226,58.554 109.443 M64.794 113.259 C 66.385 114.435,67.131 116.920,67.611 122.648 C 68.153 129.124,71.302 140.916,72.989 142.791 C 73.290 143.126,73.925 144.390,74.398 145.600 C 74.872 146.810,75.577 148.160,75.965 148.600 C 76.353 149.040,77.095 150.120,77.613 151.000 C 79.099 153.524,82.079 156.771,84.400 158.397 C 85.170 158.936,87.060 160.381,88.600 161.607 C 91.726 164.097,96.363 166.114,101.033 167.015 C 109.713 168.689,113.514 172.710,110.787 177.333 C 108.645 180.963,103.680 182.000,97.572 180.092 C 96.127 179.640,94.057 179.147,92.972 178.995 C 91.248 178.755,84.547 175.885,84.000 175.153 C 83.890 175.006,82.360 173.937,80.600 172.778 C 77.431 170.691,76.812 170.185,73.077 166.631 C 70.018 163.720,64.036 155.354,62.615 152.000 C 62.195 151.010,61.536 149.840,61.150 149.400 C 60.764 148.960,60.253 147.729,60.015 146.665 C 59.776 145.601,59.061 143.712,58.425 142.466 C 57.663 140.974,57.126 139.095,56.852 136.965 C 56.622 135.186,56.161 132.923,55.826 131.938 C 54.302 127.450,53.770 117.550,54.932 115.321 C 56.953 111.444,61.152 110.566,64.794 113.259 M93.302 213.234 C 90.513 214.068,90.600 213.273,90.600 237.782 C 90.600 258.557,90.642 259.862,91.341 260.893 C 92.485 262.579,94.119 262.795,105.713 262.798 C 117.304 262.800,118.099 262.679,120.000 260.620 L 121.000 259.536 121.110 238.221 C 121.244 212.316,121.381 212.874,115.000 213.379 C 105.122 214.161,101.977 214.102,95.600 213.016 C 95.050 212.922,94.016 213.020,93.302 213.234 M297.800 213.259 C 296.290 213.780,284.920 213.910,280.400 213.456 C 273.118 212.726,273.142 212.640,273.288 238.671 C 273.434 264.908,271.935 262.542,288.529 262.722 C 301.452 262.862,302.554 262.694,303.699 260.400 C 304.424 258.950,304.744 218.116,304.051 215.636 C 303.493 213.643,300.253 212.411,297.800 213.259 M103.054 216.265 C 105.816 216.422,109.222 216.320,112.021 215.998 L 116.535 215.478 117.678 216.757 L 118.822 218.037 118.711 237.789 C 118.602 257.166,118.584 257.564,117.757 258.671 L 116.914 259.800 105.687 259.906 C 94.490 260.012,94.456 260.010,93.394 259.097 L 92.330 258.181 92.309 237.818 L 92.289 217.454 93.421 216.480 C 94.412 215.628,94.805 215.538,96.577 215.760 C 97.689 215.899,100.604 216.127,103.054 216.265 M289.200 216.200 C 291.730 216.200,295.281 216.047,297.090 215.859 L 300.380 215.519 301.590 216.728 L 302.800 217.938 302.800 237.182 C 302.800 262.625,304.364 260.000,289.208 260.000 L 278.364 260.000 277.382 259.018 C 276.842 258.478,276.392 257.713,276.383 257.318 C 276.123 246.339,276.382 217.982,276.748 217.297 C 277.539 215.818,278.384 215.575,281.600 215.898 C 283.250 216.064,286.670 216.200,289.200 216.200 M75.206 276.010 C 73.239 276.472,72.111 277.959,71.807 280.487 C 71.156 285.904,71.808 393.730,72.504 395.800 C 72.873 396.900,73.586 399.244,74.088 401.009 C 75.321 405.350,78.910 410.915,82.816 414.542 C 93.590 424.549,111.287 426.844,121.800 419.597 C 122.680 418.990,124.406 417.845,125.635 417.051 C 128.053 415.491,131.619 411.844,133.164 409.354 C 136.927 403.285,137.269 402.464,138.441 396.683 L 139.593 391.000 139.588 335.600 C 139.582 273.674,139.769 277.735,136.851 276.227 C 135.506 275.531,78.101 275.329,75.206 276.010 M136.600 279.344 C 137.152 280.186,137.207 286.472,137.108 337.844 L 136.997 395.400 135.685 399.400 C 133.518 406.002,128.208 413.775,125.077 414.927 C 124.679 415.073,123.239 415.984,121.877 416.951 C 119.202 418.850,117.623 419.453,111.284 420.997 C 106.139 422.251,105.235 422.247,99.803 420.945 C 90.444 418.701,85.290 415.452,80.540 408.800 C 77.004 403.849,76.394 402.601,75.821 399.147 C 75.515 397.306,74.936 394.990,74.533 394.000 C 73.812 392.229,73.102 283.336,73.793 280.510 C 74.308 278.402,73.819 278.433,106.091 278.416 L 135.982 278.400 136.600 279.344 M256.594 333.200 C 256.594 360.150,256.642 371.175,256.700 357.700 C 256.758 344.225,256.758 322.175,256.700 308.700 C 256.642 295.225,256.594 306.250,256.594 333.200 M101.212 286.312 C 96.702 289.379,95.471 293.775,97.910 298.110 C 101.433 304.375,109.675 304.316,113.475 297.997 C 118.079 290.344,108.586 281.298,101.212 286.312 M108.265 287.714 C 111.432 289.493,112.851 292.236,112.181 295.285 C 110.440 303.213,99.173 301.922,99.216 293.800 C 99.242 288.851,104.269 285.470,108.265 287.714 M103.099 318.171 C 100.693 319.029,99.000 320.584,97.758 323.076 L 96.600 325.400 96.400 342.944 L 96.200 360.489 94.826 361.635 C 94.071 362.265,92.651 363.158,91.671 363.619 C 90.656 364.096,88.375 365.984,86.375 368.003 C 73.227 381.278,75.698 401.143,91.800 411.610 C 94.061 413.080,102.863 415.591,105.794 415.603 C 107.862 415.612,117.323 413.045,118.331 412.202 C 118.919 411.711,120.121 410.943,121.002 410.496 C 123.362 409.299,127.791 404.789,129.021 402.332 C 129.608 401.159,130.438 399.818,130.866 399.351 C 131.658 398.486,132.651 393.642,133.081 388.546 C 133.897 378.861,127.559 367.622,118.784 363.192 C 115.068 361.316,115.231 362.212,115.107 342.934 L 115.000 326.200 113.647 323.495 C 111.136 318.475,107.455 316.616,103.099 318.171 M108.800 320.742 C 109.350 321.146,110.340 322.239,111.000 323.171 L 112.200 324.867 112.400 342.564 L 112.600 360.260 113.729 361.965 C 114.553 363.210,115.452 363.933,117.066 364.646 C 119.428 365.691,120.229 366.325,124.383 370.442 C 126.015 372.059,127.494 373.999,128.196 375.442 C 128.826 376.739,129.714 378.309,130.168 378.930 C 130.930 379.971,130.995 380.616,130.995 387.134 L 130.995 394.209 129.438 397.403 C 123.610 409.353,115.033 413.904,100.981 412.500 C 95.911 411.993,95.496 411.815,89.984 407.784 C 79.301 399.972,77.051 381.679,85.564 371.854 C 88.490 368.478,91.994 365.547,94.219 364.618 C 98.630 362.775,98.564 363.091,98.819 342.800 C 99.065 323.286,99.075 323.221,101.800 321.369 C 104.631 319.445,106.770 319.254,108.800 320.742 M280.980 342.000 C 280.980 349.810,281.034 353.005,281.099 349.100 C 281.165 345.195,281.165 338.805,281.099 334.900 C 281.034 330.995,280.980 334.190,280.980 342.000 M101.549 376.731 C 94.754 379.187,91.745 387.587,95.551 393.476 C 101.077 402.025,113.420 401.046,116.356 391.827 C 117.648 387.771,117.659 387.428,116.600 384.074 C 114.531 377.528,108.069 374.375,101.549 376.731 M111.158 379.804 C 118.744 385.579,115.172 397.048,105.818 396.951 C 99.978 396.890,95.994 393.157,96.002 387.754 C 96.013 379.941,105.086 375.182,111.158 379.804 " stroke="none" fill="#644e39" fill-rule="evenodd"></path></g></svg>