<?xml version="1.0" standalone="no"?>
<!DOCTYPE svg PUBLIC "-//W3C//DTD SVG 20010904//EN"
 "http://www.w3.org/TR/2001/REC-SVG-20010904/DTD/svg10.dtd">
<svg version="1.0" xmlns="http://www.w3.org/2000/svg"
 width="53.000000pt" height="54.000000pt" viewBox="0 0 53.000000 54.000000"
 preserveAspectRatio="xMidYMid meet">

<g transform="translate(0.000000,54.000000) scale(0.100000,-0.100000)"
fill="#000000" stroke="none">
<path d="M369 501 l-12 -39 -71 5 c-60 5 -78 2 -113 -16 -80 -40 -122 -131
-102 -219 11 -51 8 -58 -31 -67 -37 -8 -48 -24 -27 -40 10 -7 17 -24 17 -38 0
-27 36 -61 52 -51 5 3 18 -2 28 -11 24 -22 38 -13 46 31 l6 35 42 -7 c93 -18
150 -1 204 60 48 55 63 140 36 209 -4 11 5 18 30 27 44 14 54 29 31 46 -11 8
-15 19 -11 30 8 22 -21 54 -49 54 -13 0 -28 7 -35 15 -19 23 -28 18 -41 -24z
m-91 -144 c4 -42 3 -42 43 -22 16 9 34 13 39 10 19 -12 10 -35 -20 -50 -16 -9
-30 -18 -30 -20 0 -2 14 -11 30 -20 32 -16 40 -42 15 -51 -8 -3 -24 1 -37 10
-33 23 -38 20 -38 -25 0 -33 -3 -40 -17 -37 -13 2 -19 14 -21 41 -2 21 -6 37
-10 35 -62 -31 -63 -31 -75 -19 -9 10 -5 19 22 41 l33 28 -31 16 c-33 17 -41
43 -16 52 8 3 24 -1 37 -10 32 -23 38 -20 38 17 0 61 33 63 38 4z"/>
</g>
</svg>
