<?xml version="1.0" standalone="no"?>
<!DOCTYPE svg PUBLIC "-//W3C//DTD SVG 20010904//EN"
 "http://www.w3.org/TR/2001/REC-SVG-20010904/DTD/svg10.dtd">
<svg version="1.0" xmlns="http://www.w3.org/2000/svg"
 width="56.000000pt" height="53.000000pt" viewBox="0 0 56.000000 53.000000"
 preserveAspectRatio="xMidYMid meet">

<g transform="translate(0.000000,53.000000) scale(0.100000,-0.100000)"
fill="#000000" stroke="none">
<path d="M196 494 c-9 -8 -16 -20 -16 -25 0 -5 -35 -9 -79 -9 -58 0 -82 -4
-91 -15 -10 -13 -10 -19 4 -33 11 -14 16 -38 16 -88 0 -38 6 -80 13 -94 17
-34 74 -70 112 -70 44 0 48 -8 24 -46 -11 -19 -19 -46 -17 -61 l3 -28 195 0
195 0 3 27 c2 17 -7 42 -22 65 -25 36 -26 44 -26 175 0 80 4 139 10 143 14 9
13 48 -2 63 -8 8 -58 12 -159 12 -121 0 -150 -3 -163 -16z m9 -184 l0 -65 -31
-3 c-46 -5 -64 19 -64 84 l0 55 48 -3 47 -3 0 -65z"/>
</g>
</svg>
