<?xml version="1.0" standalone="no"?>
<!DOCTYPE svg PUBLIC "-//W3C//DTD SVG 20010904//EN"
 "http://www.w3.org/TR/2001/REC-SVG-20010904/DTD/svg10.dtd">
<svg version="1.0" xmlns="http://www.w3.org/2000/svg"
 width="56.000000pt" height="64.000000pt" viewBox="0 0 56.000000 64.000000"
 preserveAspectRatio="xMidYMid meet">

<g transform="translate(0.000000,64.000000) scale(0.100000,-0.100000)"
fill="#000000" stroke="none">
<path d="M245 622 c-6 -4 -18 -19 -28 -34 -13 -21 -25 -28 -51 -28 -55 0 -82
-44 -59 -99 12 -30 12 -39 -2 -67 -25 -54 6 -104 65 -104 30 0 39 -5 48 -25 7
-14 23 -30 37 -35 33 -13 72 3 87 35 9 20 18 25 48 25 59 0 88 46 63 98 -14
28 -14 36 -1 69 24 61 -1 103 -63 103 -29 0 -39 5 -44 20 -13 42 -68 66 -100
42z m86 -141 c17 -18 29 -40 29 -56 0 -36 -41 -75 -80 -75 -39 0 -80 39 -80
75 0 32 50 85 80 85 12 0 35 -13 51 -29z"/>
<path d="M20 250 c0 -84 68 -175 165 -221 78 -36 112 -36 190 0 97 46 165 137
165 221 0 21 -3 22 -39 16 -52 -8 -88 -28 -138 -77 -37 -36 -49 -56 -67 -112
-7 -22 -25 -22 -32 1 -18 55 -30 75 -67 111 -50 49 -86 69 -138 77 -36 6 -39
5 -39 -16z"/>
</g>
</svg>
