<?xml version="1.0" standalone="no"?>
<!DOCTYPE svg PUBLIC "-//W3C//DTD SVG 20010904//EN"
 "http://www.w3.org/TR/2001/REC-SVG-20010904/DTD/svg10.dtd">
<svg version="1.0" xmlns="http://www.w3.org/2000/svg"
 width="60.000000pt" height="48.000000pt" viewBox="0 0 60.000000 48.000000"
 preserveAspectRatio="xMidYMid meet">

<g transform="translate(0.000000,48.000000) scale(0.100000,-0.100000)"
fill="#000000" stroke="none">
<path d="M16 458 c-11 -15 -16 -45 -16 -89 0 -60 2 -67 25 -77 45 -21 42 -92
-5 -107 -18 -6 -20 -15 -20 -79 0 -111 -13 -106 289 -106 243 0 253 1 281 22
28 20 30 27 30 85 0 52 -3 65 -17 70 -70 25 -70 101 0 126 14 5 17 18 17 70 0
58 -2 65 -30 85 -28 21 -38 22 -284 22 -252 0 -255 0 -270 -22z m304 -85 c17
-52 23 -57 82 -63 28 -3 53 -10 55 -16 2 -6 -15 -24 -38 -40 -44 -30 -45 -34
-23 -127 8 -34 -6 -35 -49 -3 -50 36 -51 37 -98 5 -24 -16 -47 -29 -51 -29
-12 0 -9 40 4 78 13 34 12 35 -31 72 -25 21 -41 43 -37 49 4 6 26 11 49 11 23
0 47 4 52 8 10 7 29 43 39 75 9 29 34 19 46 -20z"/>
</g>
</svg>
